# MagicaVoxel @ Ephtracy

# group
g 2-party-normal-1

# material
mtllib 2-party-normal-1.mtl
usemtl palette

# normals
vn -1 0 0
vn 1 0 0
vn 0 0 1
vn 0 0 -1
vn 0 -1 0
vn 0 1 0

# texcoords
vt 0.447266 0.5
vt 0.853516 0.5
vt 0.958984 0.5
vt 0.974609 0.5
vt 0.978516 0.5

# verts
v -6 9 7.5
v -6 9 -7.5
v -6 10 7.5
v -6 10 -7.5
v -5 0 6.5
v -5 0 -6.5
v -5 2 5.5
v -5 2 2.5
v -5 2 0.5
v -5 2 -0.5
v -5 2 -2.5
v -5 2 -5.5
v -5 3 5.5
v -5 3 2.5
v -5 3 0.5
v -5 3 -0.5
v -5 3 -2.5
v -5 3 -5.5
v -5 5 5.5
v -5 5 4.5
v -5 5 2.5
v -5 5 0.5
v -5 5 -0.5
v -5 5 -2.5
v -5 5 -4.5
v -5 5 -5.5
v -5 6 5.5
v -5 6 4.5
v -5 6 2.5
v -5 6 0.5
v -5 6 -0.5
v -5 6 -2.5
v -5 6 -4.5
v -5 6 -5.5
v -5 8 5.5
v -5 8 3.5
v -5 8 1.5
v -5 8 -1.5
v -5 8 -3.5
v -5 8 -5.5
v -5 9 6.5
v -5 9 5.5
v -5 9 3.5
v -5 9 1.5
v -5 9 -1.5
v -5 9 -3.5
v -5 9 -5.5
v -5 9 -6.5
v -5 10 6.5
v -5 10 -6.5
v -5 11 6.5
v -5 11 -6.5
v -4 11 5.5
v -4 11 -5.5
v -4 12 5.5
v -4 12 -5.5
v -3 12 4.5
v -3 12 -4.5
v -3 13 4.5
v -3 13 -4.5
v -2 0 7.5
v -2 0 6.5
v -2 1 7.5
v -2 1 6.5
v -2 13 3.5
v -2 13 -3.5
v -2 14 3.5
v -2 14 -3.5
v -1 14 2.5
v -1 14 -2.5
v -1 15 2.5
v -1 15 -2.5
v 1 0 7.5
v 1 0 6.5
v 1 1 7.5
v 1 1 6.5
v 2 10 -4.5
v 2 10 -5.5
v 2 11 -4.5
v 2 11 -5.5
v -2 10 -4.5
v -2 10 -5.5
v -2 11 -4.5
v -2 11 -5.5
v -1 0 7.5
v -1 0 6.5
v -1 1 7.5
v -1 1 6.5
v 1 14 2.5
v 1 14 -2.5
v 1 15 2.5
v 1 15 -2.5
v 2 0 7.5
v 2 0 6.5
v 2 1 7.5
v 2 1 6.5
v 2 13 3.5
v 2 13 -3.5
v 2 14 3.5
v 2 14 -3.5
v 3 12 4.5
v 3 12 -4.5
v 3 13 4.5
v 3 13 -4.5
v 4 11 5.5
v 4 11 -5.5
v 4 12 5.5
v 4 12 -5.5
v 5 0 6.5
v 5 0 -6.5
v 5 2 5.5
v 5 2 2.5
v 5 2 0.5
v 5 2 -0.5
v 5 2 -2.5
v 5 2 -5.5
v 5 3 5.5
v 5 3 2.5
v 5 3 0.5
v 5 3 -0.5
v 5 3 -2.5
v 5 3 -5.5
v 5 5 5.5
v 5 5 4.5
v 5 5 2.5
v 5 5 0.5
v 5 5 -0.5
v 5 5 -2.5
v 5 5 -4.5
v 5 5 -5.5
v 5 6 5.5
v 5 6 4.5
v 5 6 2.5
v 5 6 0.5
v 5 6 -0.5
v 5 6 -2.5
v 5 6 -4.5
v 5 6 -5.5
v 5 8 5.5
v 5 8 3.5
v 5 8 1.5
v 5 8 -1.5
v 5 8 -3.5
v 5 8 -5.5
v 5 9 6.5
v 5 9 5.5
v 5 9 3.5
v 5 9 1.5
v 5 9 -1.5
v 5 9 -3.5
v 5 9 -5.5
v 5 9 -6.5
v 5 10 6.5
v 5 10 -6.5
v 5 11 6.5
v 5 11 -6.5
v 6 9 7.5
v 6 9 -7.5
v 6 10 7.5
v 6 10 -7.5
v -6 9 7.5
v -6 10 7.5
v -2 0 7.5
v -2 1 7.5
v -1 0 7.5
v -1 1 7.5
v 1 0 7.5
v 1 1 7.5
v 2 0 7.5
v 2 1 7.5
v 6 9 7.5
v 6 10 7.5
v -5 0 6.5
v -5 9 6.5
v -5 10 6.5
v -5 11 6.5
v -4 2 6.5
v -4 3 6.5
v -4 5 6.5
v -4 6 6.5
v -4 8 6.5
v -4 9 6.5
v -3 2 6.5
v -3 3 6.5
v -3 8 6.5
v -3 9 6.5
v -2 0 6.5
v -2 1 6.5
v -2 3 6.5
v -2 8 6.5
v -2 9 6.5
v -1 0 6.5
v -1 1 6.5
v -1 3 6.5
v -1 5 6.5
v -1 6 6.5
v -1 8 6.5
v -1 9 6.5
v 1 0 6.5
v 1 1 6.5
v 1 3 6.5
v 1 5 6.5
v 1 6 6.5
v 1 8 6.5
v 1 9 6.5
v 2 0 6.5
v 2 1 6.5
v 2 3 6.5
v 2 8 6.5
v 2 9 6.5
v 3 2 6.5
v 3 3 6.5
v 3 8 6.5
v 3 9 6.5
v 4 2 6.5
v 4 3 6.5
v 4 5 6.5
v 4 6 6.5
v 4 8 6.5
v 4 9 6.5
v 5 0 6.5
v 5 9 6.5
v 5 10 6.5
v 5 11 6.5
v -4 11 5.5
v -4 12 5.5
v 4 11 5.5
v 4 12 5.5
v -3 12 4.5
v -3 13 4.5
v 3 12 4.5
v 3 13 4.5
v -2 13 3.5
v -2 14 3.5
v 2 13 3.5
v 2 14 3.5
v -1 14 2.5
v -1 15 2.5
v 1 14 2.5
v 1 15 2.5
v -2 10 -5.5
v -2 11 -5.5
v 2 10 -5.5
v 2 11 -5.5
v -1 14 -2.5
v -1 15 -2.5
v 1 14 -2.5
v 1 15 -2.5
v -2 13 -3.5
v -2 14 -3.5
v 2 13 -3.5
v 2 14 -3.5
v -3 12 -4.5
v -3 13 -4.5
v -2 10 -4.5
v -2 11 -4.5
v 2 10 -4.5
v 2 11 -4.5
v 3 12 -4.5
v 3 13 -4.5
v -4 11 -5.5
v -4 12 -5.5
v 4 11 -5.5
v 4 12 -5.5
v -5 0 -6.5
v -5 9 -6.5
v -5 10 -6.5
v -5 11 -6.5
v -4 1 -6.5
v -4 3 -6.5
v -4 5 -6.5
v -4 6 -6.5
v -4 8 -6.5
v -4 9 -6.5
v -2 8 -6.5
v -2 9 -6.5
v -1 1 -6.5
v -1 3 -6.5
v -1 5 -6.5
v -1 6 -6.5
v 1 1 -6.5
v 1 3 -6.5
v 1 5 -6.5
v 1 6 -6.5
v 2 8 -6.5
v 2 9 -6.5
v 4 1 -6.5
v 4 3 -6.5
v 4 5 -6.5
v 4 6 -6.5
v 4 8 -6.5
v 4 9 -6.5
v 5 0 -6.5
v 5 9 -6.5
v 5 10 -6.5
v 5 11 -6.5
v -6 9 -7.5
v -6 10 -7.5
v 6 9 -7.5
v 6 10 -7.5
v -2 0 7.5
v -1 0 7.5
v 1 0 7.5
v 2 0 7.5
v -5 0 6.5
v -2 0 6.5
v -1 0 6.5
v 1 0 6.5
v 2 0 6.5
v 5 0 6.5
v -5 0 -6.5
v 5 0 -6.5
v -6 9 7.5
v 6 9 7.5
v -5 9 6.5
v -4 9 6.5
v -3 9 6.5
v -2 9 6.5
v -1 9 6.5
v 1 9 6.5
v 2 9 6.5
v 3 9 6.5
v 4 9 6.5
v 5 9 6.5
v -5 9 5.5
v 5 9 5.5
v -5 9 3.5
v 5 9 3.5
v -5 9 1.5
v 5 9 1.5
v -5 9 -1.5
v 5 9 -1.5
v -5 9 -3.5
v 5 9 -3.5
v -5 9 -5.5
v 5 9 -5.5
v -5 9 -6.5
v -4 9 -6.5
v -2 9 -6.5
v 2 9 -6.5
v 4 9 -6.5
v 5 9 -6.5
v -6 9 -7.5
v 6 9 -7.5
v -2 11 -4.5
v 2 11 -4.5
v -2 11 -5.5
v 2 11 -5.5
v -2 1 7.5
v -1 1 7.5
v 1 1 7.5
v 2 1 7.5
v -2 1 6.5
v -1 1 6.5
v 1 1 6.5
v 2 1 6.5
v -6 10 7.5
v 6 10 7.5
v -5 10 6.5
v 5 10 6.5
v -2 10 -4.5
v 2 10 -4.5
v -2 10 -5.5
v 2 10 -5.5
v -5 10 -6.5
v 5 10 -6.5
v -6 10 -7.5
v 6 10 -7.5
v -5 11 6.5
v 5 11 6.5
v -4 11 5.5
v 4 11 5.5
v -4 11 -5.5
v 4 11 -5.5
v -5 11 -6.5
v 5 11 -6.5
v -4 12 5.5
v 4 12 5.5
v -3 12 4.5
v 3 12 4.5
v -3 12 -4.5
v 3 12 -4.5
v -4 12 -5.5
v 4 12 -5.5
v -3 13 4.5
v 3 13 4.5
v -2 13 3.5
v 2 13 3.5
v -2 13 -3.5
v 2 13 -3.5
v -3 13 -4.5
v 3 13 -4.5
v -2 14 3.5
v 2 14 3.5
v -1 14 2.5
v 1 14 2.5
v -1 14 -2.5
v 1 14 -2.5
v -2 14 -3.5
v 2 14 -3.5
v -1 15 2.5
v 1 15 2.5
v -1 15 -2.5
v 1 15 -2.5

# faces
f 3/2/1 2/2/1 1/2/1
f 4/2/1 2/2/1 3/2/1
f 7/5/1 6/5/1 5/5/1
f 8/5/1 6/5/1 7/5/1
f 9/5/1 6/5/1 8/5/1
f 10/5/1 6/5/1 9/5/1
f 11/5/1 6/5/1 10/5/1
f 12/5/1 6/5/1 11/5/1
f 13/5/1 7/5/1 5/5/1
f 13/1/1 8/1/1 7/1/1
f 14/5/1 9/5/1 8/5/1
f 14/1/1 8/1/1 13/1/1
f 15/1/1 10/1/1 9/1/1
f 15/5/1 9/5/1 14/5/1
f 16/5/1 11/5/1 10/5/1
f 16/1/1 10/1/1 15/1/1
f 17/1/1 12/1/1 11/1/1
f 17/5/1 11/5/1 16/5/1
f 18/5/1 6/5/1 12/5/1
f 18/1/1 12/1/1 17/1/1
f 19/5/1 17/5/1 16/5/1
f 19/5/1 16/5/1 15/5/1
f 19/5/1 18/5/1 17/5/1
f 19/5/1 15/5/1 14/5/1
f 19/5/1 14/5/1 13/5/1
f 19/5/1 13/5/1 5/5/1
f 20/5/1 18/5/1 19/5/1
f 21/5/1 18/5/1 20/5/1
f 22/5/1 18/5/1 21/5/1
f 23/5/1 18/5/1 22/5/1
f 24/5/1 18/5/1 23/5/1
f 25/5/1 18/5/1 24/5/1
f 26/5/1 6/5/1 18/5/1
f 26/5/1 18/5/1 25/5/1
f 27/5/1 19/5/1 5/5/1
f 27/1/1 20/1/1 19/1/1
f 28/5/1 21/5/1 20/5/1
f 28/1/1 20/1/1 27/1/1
f 29/1/1 22/1/1 21/1/1
f 29/5/1 21/5/1 28/5/1
f 30/5/1 23/5/1 22/5/1
f 30/1/1 22/1/1 29/1/1
f 31/1/1 24/1/1 23/1/1
f 31/5/1 23/5/1 30/5/1
f 32/5/1 25/5/1 24/5/1
f 32/1/1 24/1/1 31/1/1
f 33/1/1 26/1/1 25/1/1
f 33/5/1 25/5/1 32/5/1
f 34/5/1 6/5/1 26/5/1
f 34/1/1 26/1/1 33/1/1
f 35/5/1 31/5/1 30/5/1
f 35/5/1 33/5/1 32/5/1
f 35/5/1 34/5/1 33/5/1
f 35/5/1 30/5/1 29/5/1
f 35/5/1 29/5/1 28/5/1
f 35/5/1 28/5/1 27/5/1
f 35/5/1 27/5/1 5/5/1
f 35/5/1 32/5/1 31/5/1
f 36/5/1 34/5/1 35/5/1
f 37/5/1 34/5/1 36/5/1
f 38/5/1 34/5/1 37/5/1
f 39/5/1 34/5/1 38/5/1
f 40/5/1 6/5/1 34/5/1
f 40/5/1 34/5/1 39/5/1
f 41/5/1 35/5/1 5/5/1
f 42/1/1 36/1/1 35/1/1
f 42/5/1 35/5/1 41/5/1
f 43/5/1 37/5/1 36/5/1
f 43/1/1 36/1/1 42/1/1
f 44/1/1 38/1/1 37/1/1
f 44/5/1 37/5/1 43/5/1
f 45/5/1 39/5/1 38/5/1
f 45/1/1 38/1/1 44/1/1
f 46/1/1 40/1/1 39/1/1
f 46/5/1 39/5/1 45/5/1
f 47/5/1 6/5/1 40/5/1
f 47/1/1 40/1/1 46/1/1
f 48/5/1 6/5/1 47/5/1
f 51/2/1 50/2/1 49/2/1
f 52/2/1 50/2/1 51/2/1
f 55/2/1 54/2/1 53/2/1
f 56/2/1 54/2/1 55/2/1
f 59/2/1 58/2/1 57/2/1
f 60/2/1 58/2/1 59/2/1
f 63/5/1 62/5/1 61/5/1
f 64/5/1 62/5/1 63/5/1
f 67/2/1 66/2/1 65/2/1
f 68/2/1 66/2/1 67/2/1
f 71/2/1 70/2/1 69/2/1
f 72/2/1 70/2/1 71/2/1
f 75/4/1 74/4/1 73/4/1
f 76/4/1 74/4/1 75/4/1
f 79/5/1 78/5/1 77/5/1
f 80/5/1 78/5/1 79/5/1
f 81/5/2 82/5/2 83/5/2
f 83/5/2 82/5/2 84/5/2
f 85/5/2 86/5/2 87/5/2
f 87/5/2 86/5/2 88/5/2
f 89/2/2 90/2/2 91/2/2
f 91/2/2 90/2/2 92/2/2
f 93/4/2 94/4/2 95/4/2
f 95/4/2 94/4/2 96/4/2
f 97/2/2 98/2/2 99/2/2
f 99/2/2 98/2/2 100/2/2
f 101/2/2 102/2/2 103/2/2
f 103/2/2 102/2/2 104/2/2
f 105/2/2 106/2/2 107/2/2
f 107/2/2 106/2/2 108/2/2
f 109/5/2 110/5/2 111/5/2
f 111/5/2 110/5/2 112/5/2
f 112/5/2 110/5/2 113/5/2
f 113/5/2 110/5/2 114/5/2
f 114/5/2 110/5/2 115/5/2
f 115/5/2 110/5/2 116/5/2
f 109/5/2 111/5/2 117/5/2
f 111/1/2 112/1/2 117/1/2
f 112/5/2 113/5/2 118/5/2
f 117/1/2 112/1/2 118/1/2
f 113/1/2 114/1/2 119/1/2
f 118/5/2 113/5/2 119/5/2
f 114/5/2 115/5/2 120/5/2
f 119/1/2 114/1/2 120/1/2
f 115/1/2 116/1/2 121/1/2
f 120/5/2 115/5/2 121/5/2
f 116/5/2 110/5/2 122/5/2
f 121/1/2 116/1/2 122/1/2
f 120/5/2 121/5/2 123/5/2
f 119/5/2 120/5/2 123/5/2
f 121/5/2 122/5/2 123/5/2
f 118/5/2 119/5/2 123/5/2
f 117/5/2 118/5/2 123/5/2
f 109/5/2 117/5/2 123/5/2
f 123/5/2 122/5/2 124/5/2
f 124/5/2 122/5/2 125/5/2
f 125/5/2 122/5/2 126/5/2
f 126/5/2 122/5/2 127/5/2
f 127/5/2 122/5/2 128/5/2
f 128/5/2 122/5/2 129/5/2
f 122/5/2 110/5/2 130/5/2
f 129/5/2 122/5/2 130/5/2
f 109/5/2 123/5/2 131/5/2
f 123/1/2 124/1/2 131/1/2
f 124/5/2 125/5/2 132/5/2
f 131/1/2 124/1/2 132/1/2
f 125/1/2 126/1/2 133/1/2
f 132/5/2 125/5/2 133/5/2
f 126/5/2 127/5/2 134/5/2
f 133/1/2 126/1/2 134/1/2
f 127/1/2 128/1/2 135/1/2
f 134/5/2 127/5/2 135/5/2
f 128/5/2 129/5/2 136/5/2
f 135/1/2 128/1/2 136/1/2
f 129/1/2 130/1/2 137/1/2
f 136/5/2 129/5/2 137/5/2
f 130/5/2 110/5/2 138/5/2
f 137/1/2 130/1/2 138/1/2
f 134/5/2 135/5/2 139/5/2
f 136/5/2 137/5/2 139/5/2
f 137/5/2 138/5/2 139/5/2
f 133/5/2 134/5/2 139/5/2
f 132/5/2 133/5/2 139/5/2
f 131/5/2 132/5/2 139/5/2
f 109/5/2 131/5/2 139/5/2
f 135/5/2 136/5/2 139/5/2
f 139/5/2 138/5/2 140/5/2
f 140/5/2 138/5/2 141/5/2
f 141/5/2 138/5/2 142/5/2
f 142/5/2 138/5/2 143/5/2
f 138/5/2 110/5/2 144/5/2
f 143/5/2 138/5/2 144/5/2
f 109/5/2 139/5/2 145/5/2
f 139/1/2 140/1/2 146/1/2
f 145/5/2 139/5/2 146/5/2
f 140/5/2 141/5/2 147/5/2
f 146/1/2 140/1/2 147/1/2
f 141/1/2 142/1/2 148/1/2
f 147/5/2 141/5/2 148/5/2
f 142/5/2 143/5/2 149/5/2
f 148/1/2 142/1/2 149/1/2
f 143/1/2 144/1/2 150/1/2
f 149/5/2 143/5/2 150/5/2
f 144/5/2 110/5/2 151/5/2
f 150/1/2 144/1/2 151/1/2
f 151/5/2 110/5/2 152/5/2
f 153/2/2 154/2/2 155/2/2
f 155/2/2 154/2/2 156/2/2
f 157/2/2 158/2/2 159/2/2
f 159/2/2 158/2/2 160/2/2
f 165/5/3 164/5/3 163/5/3
f 166/5/3 164/5/3 165/5/3
f 169/4/3 168/4/3 167/4/3
f 170/4/3 168/4/3 169/4/3
f 171/2/3 162/2/3 161/2/3
f 172/2/3 162/2/3 171/2/3
f 177/5/3 174/5/3 173/5/3
f 178/5/3 174/5/3 177/5/3
f 179/5/3 174/5/3 178/5/3
f 180/5/3 174/5/3 179/5/3
f 181/5/3 174/5/3 180/5/3
f 182/5/3 174/5/3 181/5/3
f 183/5/3 177/5/3 173/5/3
f 183/1/3 178/1/3 177/1/3
f 184/5/3 179/5/3 178/5/3
f 184/1/3 178/1/3 183/1/3
f 185/1/3 182/1/3 181/1/3
f 185/5/3 181/5/3 180/5/3
f 186/1/3 182/1/3 185/1/3
f 187/5/3 183/5/3 173/5/3
f 187/5/3 184/5/3 183/5/3
f 188/5/3 184/5/3 187/5/3
f 189/5/3 179/5/3 184/5/3
f 189/5/3 184/5/3 188/5/3
f 190/5/3 186/5/3 185/5/3
f 190/5/3 185/5/3 180/5/3
f 191/5/3 186/5/3 190/5/3
f 193/3/3 189/3/3 188/3/3
f 194/5/3 179/5/3 189/5/3
f 194/3/3 189/3/3 193/3/3
f 195/1/3 180/1/3 179/1/3
f 195/5/3 179/5/3 194/5/3
f 196/5/3 190/5/3 180/5/3
f 196/1/3 180/1/3 195/1/3
f 197/1/3 191/1/3 190/1/3
f 197/5/3 190/5/3 196/5/3
f 198/1/3 191/1/3 197/1/3
f 199/5/3 194/5/3 193/5/3
f 199/5/3 193/5/3 192/5/3
f 199/5/3 198/5/3 197/5/3
f 199/5/3 197/5/3 196/5/3
f 199/5/3 196/5/3 195/5/3
f 199/5/3 195/5/3 194/5/3
f 200/5/3 198/5/3 199/5/3
f 201/5/3 198/5/3 200/5/3
f 202/5/3 198/5/3 201/5/3
f 203/5/3 198/5/3 202/5/3
f 204/5/3 198/5/3 203/5/3
f 205/5/3 198/5/3 204/5/3
f 207/3/3 201/3/3 200/3/3
f 208/5/3 202/5/3 201/5/3
f 208/3/3 201/3/3 207/3/3
f 209/1/3 205/1/3 204/1/3
f 209/5/3 204/5/3 203/5/3
f 210/1/3 205/1/3 209/1/3
f 211/5/3 207/5/3 206/5/3
f 211/5/3 208/5/3 207/5/3
f 212/5/3 202/5/3 208/5/3
f 212/5/3 208/5/3 211/5/3
f 213/5/3 210/5/3 209/5/3
f 213/5/3 209/5/3 203/5/3
f 214/5/3 210/5/3 213/5/3
f 215/5/3 211/5/3 206/5/3
f 215/1/3 212/1/3 211/1/3
f 216/5/3 202/5/3 212/5/3
f 216/1/3 212/1/3 215/1/3
f 217/1/3 203/1/3 202/1/3
f 217/5/3 202/5/3 216/5/3
f 218/5/3 213/5/3 203/5/3
f 218/1/3 203/1/3 217/1/3
f 219/1/3 214/1/3 213/1/3
f 219/5/3 213/5/3 218/5/3
f 220/1/3 214/1/3 219/1/3
f 221/5/3 216/5/3 215/5/3
f 221/5/3 215/5/3 206/5/3
f 221/5/3 220/5/3 219/5/3
f 221/5/3 219/5/3 218/5/3
f 221/5/3 217/5/3 216/5/3
f 221/5/3 218/5/3 217/5/3
f 222/5/3 220/5/3 221/5/3
f 223/2/3 176/2/3 175/2/3
f 224/2/3 176/2/3 223/2/3
f 227/2/3 226/2/3 225/2/3
f 228/2/3 226/2/3 227/2/3
f 231/2/3 230/2/3 229/2/3
f 232/2/3 230/2/3 231/2/3
f 235/2/3 234/2/3 233/2/3
f 236/2/3 234/2/3 235/2/3
f 239/2/3 238/2/3 237/2/3
f 240/2/3 238/2/3 239/2/3
f 243/2/3 242/2/3 241/2/3
f 244/2/3 242/2/3 243/2/3
f 245/2/4 246/2/4 247/2/4
f 247/2/4 246/2/4 248/2/4
f 249/2/4 250/2/4 251/2/4
f 251/2/4 250/2/4 252/2/4
f 255/5/4 256/5/4 257/5/4
f 257/5/4 256/5/4 258/5/4
f 253/2/4 254/2/4 259/2/4
f 259/2/4 254/2/4 260/2/4
f 261/2/4 262/2/4 263/2/4
f 263/2/4 262/2/4 264/2/4
f 265/5/4 266/5/4 269/5/4
f 269/5/4 266/5/4 270/5/4
f 270/5/4 266/5/4 271/5/4
f 271/5/4 266/5/4 272/5/4
f 272/5/4 266/5/4 273/5/4
f 273/5/4 266/5/4 274/5/4
f 272/5/4 273/5/4 275/5/4
f 273/1/4 274/1/4 275/1/4
f 275/1/4 274/1/4 276/1/4
f 265/5/4 269/5/4 277/5/4
f 269/1/4 270/1/4 277/1/4
f 270/5/4 271/5/4 278/5/4
f 277/1/4 270/1/4 278/1/4
f 271/1/4 272/1/4 279/1/4
f 278/5/4 271/5/4 279/5/4
f 275/5/4 276/5/4 280/5/4
f 279/1/4 272/1/4 280/1/4
f 272/5/4 275/5/4 280/5/4
f 278/5/4 279/5/4 281/5/4
f 265/5/4 277/5/4 281/5/4
f 279/5/4 280/5/4 281/5/4
f 277/5/4 278/5/4 281/5/4
f 281/5/4 280/5/4 282/5/4
f 282/5/4 280/5/4 283/5/4
f 280/5/4 276/5/4 284/5/4
f 283/5/4 280/5/4 284/5/4
f 284/5/4 276/5/4 285/5/4
f 285/5/4 276/5/4 286/5/4
f 265/5/4 281/5/4 287/5/4
f 281/1/4 282/1/4 287/1/4
f 282/5/4 283/5/4 288/5/4
f 287/1/4 282/1/4 288/1/4
f 283/1/4 284/1/4 289/1/4
f 288/5/4 283/5/4 289/5/4
f 284/5/4 285/5/4 290/5/4
f 289/1/4 284/1/4 290/1/4
f 285/1/4 286/1/4 291/1/4
f 290/5/4 285/5/4 291/5/4
f 291/1/4 286/1/4 292/1/4
f 265/5/4 287/5/4 293/5/4
f 289/5/4 290/5/4 293/5/4
f 291/5/4 292/5/4 293/5/4
f 290/5/4 291/5/4 293/5/4
f 288/5/4 289/5/4 293/5/4
f 287/5/4 288/5/4 293/5/4
f 293/5/4 292/5/4 294/5/4
f 267/2/4 268/2/4 295/2/4
f 295/2/4 268/2/4 296/2/4
f 297/2/4 298/2/4 299/2/4
f 299/2/4 298/2/4 300/2/4
f 306/5/5 302/5/5 301/5/5
f 307/5/5 302/5/5 306/5/5
f 308/4/5 304/4/5 303/4/5
f 309/4/5 304/4/5 308/4/5
f 311/5/5 307/5/5 306/5/5
f 311/5/5 310/5/5 309/5/5
f 311/5/5 309/5/5 308/5/5
f 311/5/5 308/5/5 307/5/5
f 311/5/5 306/5/5 305/5/5
f 312/5/5 310/5/5 311/5/5
f 315/2/5 314/2/5 313/2/5
f 316/2/5 314/2/5 315/2/5
f 317/2/5 314/2/5 316/2/5
f 318/2/5 314/2/5 317/2/5
f 319/2/5 314/2/5 318/2/5
f 320/2/5 314/2/5 319/2/5
f 321/2/5 314/2/5 320/2/5
f 322/2/5 314/2/5 321/2/5
f 323/2/5 314/2/5 322/2/5
f 324/2/5 314/2/5 323/2/5
f 325/2/5 315/2/5 313/2/5
f 326/2/5 314/2/5 324/2/5
f 327/2/5 325/2/5 313/2/5
f 328/2/5 314/2/5 326/2/5
f 329/2/5 327/2/5 313/2/5
f 330/2/5 314/2/5 328/2/5
f 331/2/5 329/2/5 313/2/5
f 332/2/5 314/2/5 330/2/5
f 333/2/5 331/2/5 313/2/5
f 334/2/5 314/2/5 332/2/5
f 335/2/5 333/2/5 313/2/5
f 336/2/5 314/2/5 334/2/5
f 337/2/5 335/2/5 313/2/5
f 342/2/5 314/2/5 336/2/5
f 343/2/5 341/2/5 340/2/5
f 343/2/5 342/2/5 341/2/5
f 343/2/5 337/2/5 313/2/5
f 343/2/5 338/2/5 337/2/5
f 343/2/5 340/2/5 339/2/5
f 343/2/5 339/2/5 338/2/5
f 344/2/5 314/2/5 342/2/5
f 344/2/5 342/2/5 343/2/5
f 347/2/5 346/2/5 345/2/5
f 348/2/5 346/2/5 347/2/5
f 349/5/6 350/5/6 353/5/6
f 353/5/6 350/5/6 354/5/6
f 351/4/6 352/4/6 355/4/6
f 355/4/6 352/4/6 356/4/6
f 357/2/6 358/2/6 359/2/6
f 359/2/6 358/2/6 360/2/6
f 361/5/6 362/5/6 363/5/6
f 363/5/6 362/5/6 364/5/6
f 357/2/6 359/2/6 365/2/6
f 360/2/6 358/2/6 366/2/6
f 357/2/6 365/2/6 367/2/6
f 365/2/6 366/2/6 367/2/6
f 366/2/6 358/2/6 368/2/6
f 367/2/6 366/2/6 368/2/6
f 369/2/6 370/2/6 371/2/6
f 371/2/6 370/2/6 372/2/6
f 369/2/6 371/2/6 373/2/6
f 372/2/6 370/2/6 374/2/6
f 369/2/6 373/2/6 375/2/6
f 373/2/6 374/2/6 375/2/6
f 374/2/6 370/2/6 376/2/6
f 375/2/6 374/2/6 376/2/6
f 377/2/6 378/2/6 379/2/6
f 379/2/6 378/2/6 380/2/6
f 377/2/6 379/2/6 381/2/6
f 380/2/6 378/2/6 382/2/6
f 377/2/6 381/2/6 383/2/6
f 381/2/6 382/2/6 383/2/6
f 382/2/6 378/2/6 384/2/6
f 383/2/6 382/2/6 384/2/6
f 385/2/6 386/2/6 387/2/6
f 387/2/6 386/2/6 388/2/6
f 385/2/6 387/2/6 389/2/6
f 388/2/6 386/2/6 390/2/6
f 385/2/6 389/2/6 391/2/6
f 389/2/6 390/2/6 391/2/6
f 390/2/6 386/2/6 392/2/6
f 391/2/6 390/2/6 392/2/6
f 393/2/6 394/2/6 395/2/6
f 395/2/6 394/2/6 396/2/6
f 393/2/6 395/2/6 397/2/6
f 396/2/6 394/2/6 398/2/6
f 393/2/6 397/2/6 399/2/6
f 397/2/6 398/2/6 399/2/6
f 398/2/6 394/2/6 400/2/6
f 399/2/6 398/2/6 400/2/6
f 401/2/6 402/2/6 403/2/6
f 403/2/6 402/2/6 404/2/6
