# MagicaVoxel @ Ephtracy

# group
g 2-party-single-pitch-roof

# material
mtllib 2-party-single-pitch-roof.mtl
usemtl palette

# normals
vn -1 0 0
vn 1 0 0
vn 0 0 1
vn 0 0 -1
vn 0 -1 0
vn 0 1 0

# texcoords
vt 0.447266 0.5
vt 0.958984 0.5
vt 0.966797 0.5
vt 0.974609 0.5
vt 0.978516 0.5

# verts
v -5.5 9 7.5
v -5.5 9 -7.5
v -5.5 10 7.5
v -5.5 10 -7.5
v -4.5 0 6.5
v -4.5 0 -6.5
v -4.5 1 -6.5
v -4.5 1 -7.5
v -4.5 2 5.5
v -4.5 2 2.5
v -4.5 2 0.5
v -4.5 2 -0.5
v -4.5 2 -2.5
v -4.5 2 -5.5
v -4.5 2 -6.5
v -4.5 2 -7.5
v -4.5 3 5.5
v -4.5 3 2.5
v -4.5 3 0.5
v -4.5 3 -0.5
v -4.5 3 -2.5
v -4.5 3 -5.5
v -4.5 5 5.5
v -4.5 5 4.5
v -4.5 5 2.5
v -4.5 5 0.5
v -4.5 5 -0.5
v -4.5 5 -2.5
v -4.5 5 -4.5
v -4.5 5 -5.5
v -4.5 6 5.5
v -4.5 6 4.5
v -4.5 6 2.5
v -4.5 6 0.5
v -4.5 6 -0.5
v -4.5 6 -2.5
v -4.5 6 -4.5
v -4.5 6 -5.5
v -4.5 8 5.5
v -4.5 8 3.5
v -4.5 8 1.5
v -4.5 8 -1.5
v -4.5 8 -3.5
v -4.5 8 -5.5
v -4.5 9 6.5
v -4.5 9 5.5
v -4.5 9 3.5
v -4.5 9 1.5
v -4.5 9 -1.5
v -4.5 9 -3.5
v -4.5 9 -5.5
v -4.5 9 -6.5
v -4.5 10 7.5
v -4.5 10 -7.5
v -4.5 11 7.5
v -4.5 11 -7.5
v -2.5 11 7.5
v -2.5 11 -7.5
v -2.5 12 7.5
v -2.5 12 -7.5
v -1.5 0 7.5
v -1.5 0 6.5
v -1.5 1 7.5
v -1.5 1 6.5
v -0.5 12 7.5
v -0.5 12 -7.5
v -0.5 13 7.5
v -0.5 13 -7.5
v 1.5 0 7.5
v 1.5 0 6.5
v 1.5 1 7.5
v 1.5 1 6.5
v 1.5 13 7.5
v 1.5 13 -7.5
v 1.5 14 7.5
v 1.5 14 -7.5
v 3.5 14 7.5
v 3.5 14 -7.5
v 3.5 15 7.5
v 3.5 15 -7.5
v -4.5 9 7.5
v -4.5 9 6.5
v -4.5 9 -6.5
v -4.5 9 -7.5
v -4.5 10 7.5
v -4.5 10 6.5
v -4.5 10 -6.5
v -4.5 10 -7.5
v -3.5 1 -6.5
v -3.5 1 -7.5
v -3.5 2 -6.5
v -3.5 2 -7.5
v -2.5 10 7.5
v -2.5 10 6.5
v -2.5 10 -6.5
v -2.5 10 -7.5
v -2.5 11 7.5
v -2.5 11 6.5
v -2.5 11 -6.5
v -2.5 11 -7.5
v -0.5 0 7.5
v -0.5 0 6.5
v -0.5 1 7.5
v -0.5 1 6.5
v -0.5 11 7.5
v -0.5 11 6.5
v -0.5 11 -6.5
v -0.5 11 -7.5
v -0.5 12 7.5
v -0.5 12 6.5
v -0.5 12 -6.5
v -0.5 12 -7.5
v 1.5 12 7.5
v 1.5 12 6.5
v 1.5 12 -6.5
v 1.5 12 -7.5
v 1.5 13 7.5
v 1.5 13 6.5
v 1.5 13 -6.5
v 1.5 13 -7.5
v 2.5 0 7.5
v 2.5 0 6.5
v 2.5 1 7.5
v 2.5 1 6.5
v 3.5 13 7.5
v 3.5 13 6.5
v 3.5 13 -6.5
v 3.5 13 -7.5
v 3.5 14 7.5
v 3.5 14 6.5
v 3.5 14 -6.5
v 3.5 14 -7.5
v 5.5 0 6.5
v 5.5 0 -6.5
v 5.5 2 5.5
v 5.5 2 2.5
v 5.5 2 0.5
v 5.5 2 -0.5
v 5.5 2 -2.5
v 5.5 2 -5.5
v 5.5 3 5.5
v 5.5 3 2.5
v 5.5 3 0.5
v 5.5 3 -0.5
v 5.5 3 -2.5
v 5.5 3 -5.5
v 5.5 5 5.5
v 5.5 5 4.5
v 5.5 5 2.5
v 5.5 5 0.5
v 5.5 5 -0.5
v 5.5 5 -2.5
v 5.5 5 -4.5
v 5.5 5 -5.5
v 5.5 6 5.5
v 5.5 6 4.5
v 5.5 6 2.5
v 5.5 6 0.5
v 5.5 6 -0.5
v 5.5 6 -2.5
v 5.5 6 -4.5
v 5.5 6 -5.5
v 5.5 8 5.5
v 5.5 8 3.5
v 5.5 8 1.5
v 5.5 8 -1.5
v 5.5 8 -3.5
v 5.5 8 -5.5
v 5.5 9 5.5
v 5.5 9 3.5
v 5.5 9 1.5
v 5.5 9 -1.5
v 5.5 9 -3.5
v 5.5 9 -5.5
v 5.5 10 6.5
v 5.5 10 -6.5
v 5.5 14 7.5
v 5.5 14 6.5
v 5.5 14 -6.5
v 5.5 14 -7.5
v 5.5 15 7.5
v 5.5 15 -7.5
v -5.5 9 7.5
v -5.5 10 7.5
v -4.5 9 7.5
v -4.5 10 7.5
v -4.5 11 7.5
v -2.5 10 7.5
v -2.5 11 7.5
v -2.5 12 7.5
v -1.5 0 7.5
v -1.5 1 7.5
v -0.5 0 7.5
v -0.5 1 7.5
v -0.5 11 7.5
v -0.5 12 7.5
v -0.5 13 7.5
v 1.5 0 7.5
v 1.5 1 7.5
v 1.5 12 7.5
v 1.5 13 7.5
v 1.5 14 7.5
v 2.5 0 7.5
v 2.5 1 7.5
v 3.5 13 7.5
v 3.5 14 7.5
v 3.5 15 7.5
v 5.5 14 7.5
v 5.5 15 7.5
v -4.5 0 6.5
v -4.5 9 6.5
v -4.5 10 6.5
v -3.5 2 6.5
v -3.5 3 6.5
v -3.5 5 6.5
v -3.5 6 6.5
v -3.5 8 6.5
v -3.5 9 6.5
v -2.5 2 6.5
v -2.5 3 6.5
v -2.5 8 6.5
v -2.5 9 6.5
v -2.5 10 6.5
v -2.5 11 6.5
v -1.5 0 6.5
v -1.5 1 6.5
v -1.5 3 6.5
v -1.5 8 6.5
v -1.5 9 6.5
v -0.5 0 6.5
v -0.5 1 6.5
v -0.5 3 6.5
v -0.5 5 6.5
v -0.5 6 6.5
v -0.5 8 6.5
v -0.5 9 6.5
v -0.5 11 6.5
v -0.5 12 6.5
v 1.5 0 6.5
v 1.5 1 6.5
v 1.5 3 6.5
v 1.5 5 6.5
v 1.5 6 6.5
v 1.5 8 6.5
v 1.5 9 6.5
v 1.5 12 6.5
v 1.5 13 6.5
v 2.5 0 6.5
v 2.5 1 6.5
v 2.5 3 6.5
v 2.5 8 6.5
v 2.5 9 6.5
v 3.5 2 6.5
v 3.5 3 6.5
v 3.5 8 6.5
v 3.5 9 6.5
v 3.5 13 6.5
v 3.5 14 6.5
v 4.5 2 6.5
v 4.5 3 6.5
v 4.5 5 6.5
v 4.5 6 6.5
v 4.5 8 6.5
v 4.5 9 6.5
v 5.5 0 6.5
v 5.5 10 6.5
v 5.5 14 6.5
v -4.5 0 -6.5
v -4.5 1 -6.5
v -4.5 2 -6.5
v -4.5 9 -6.5
v -4.5 10 -6.5
v -3.5 1 -6.5
v -3.5 2 -6.5
v -3.5 3 -6.5
v -3.5 5 -6.5
v -3.5 6 -6.5
v -3.5 8 -6.5
v -3.5 9 -6.5
v -2.5 10 -6.5
v -2.5 11 -6.5
v -1.5 8 -6.5
v -1.5 9 -6.5
v -0.5 1 -6.5
v -0.5 3 -6.5
v -0.5 5 -6.5
v -0.5 6 -6.5
v -0.5 11 -6.5
v -0.5 12 -6.5
v 1.5 1 -6.5
v 1.5 3 -6.5
v 1.5 5 -6.5
v 1.5 6 -6.5
v 1.5 12 -6.5
v 1.5 13 -6.5
v 2.5 8 -6.5
v 2.5 9 -6.5
v 3.5 13 -6.5
v 3.5 14 -6.5
v 4.5 1 -6.5
v 4.5 3 -6.5
v 4.5 5 -6.5
v 4.5 6 -6.5
v 4.5 8 -6.5
v 4.5 9 -6.5
v 5.5 0 -6.5
v 5.5 10 -6.5
v 5.5 14 -6.5
v -5.5 9 -7.5
v -5.5 10 -7.5
v -4.5 1 -7.5
v -4.5 2 -7.5
v -4.5 9 -7.5
v -4.5 10 -7.5
v -4.5 11 -7.5
v -3.5 1 -7.5
v -3.5 2 -7.5
v -2.5 10 -7.5
v -2.5 11 -7.5
v -2.5 12 -7.5
v -0.5 11 -7.5
v -0.5 12 -7.5
v -0.5 13 -7.5
v 1.5 12 -7.5
v 1.5 13 -7.5
v 1.5 14 -7.5
v 3.5 13 -7.5
v 3.5 14 -7.5
v 3.5 15 -7.5
v 5.5 14 -7.5
v 5.5 15 -7.5
v -1.5 0 7.5
v -0.5 0 7.5
v 1.5 0 7.5
v 2.5 0 7.5
v -4.5 0 6.5
v -1.5 0 6.5
v -0.5 0 6.5
v 1.5 0 6.5
v 2.5 0 6.5
v 5.5 0 6.5
v -4.5 0 -6.5
v 5.5 0 -6.5
v -4.5 1 -6.5
v -3.5 1 -6.5
v -4.5 1 -7.5
v -3.5 1 -7.5
v -5.5 9 7.5
v -4.5 9 7.5
v -4.5 9 6.5
v -4.5 9 5.5
v -4.5 9 3.5
v -4.5 9 1.5
v -4.5 9 -1.5
v -4.5 9 -3.5
v -4.5 9 -5.5
v -4.5 9 -6.5
v -5.5 9 -7.5
v -4.5 9 -7.5
v -4.5 10 7.5
v -2.5 10 7.5
v -4.5 10 6.5
v -2.5 10 6.5
v -4.5 10 -6.5
v -2.5 10 -6.5
v -4.5 10 -7.5
v -2.5 10 -7.5
v -2.5 11 7.5
v -0.5 11 7.5
v -2.5 11 6.5
v -0.5 11 6.5
v -2.5 11 -6.5
v -0.5 11 -6.5
v -2.5 11 -7.5
v -0.5 11 -7.5
v -0.5 12 7.5
v 1.5 12 7.5
v -0.5 12 6.5
v 1.5 12 6.5
v -0.5 12 -6.5
v 1.5 12 -6.5
v -0.5 12 -7.5
v 1.5 12 -7.5
v 1.5 13 7.5
v 3.5 13 7.5
v 1.5 13 6.5
v 3.5 13 6.5
v 1.5 13 -6.5
v 3.5 13 -6.5
v 1.5 13 -7.5
v 3.5 13 -7.5
v 3.5 14 7.5
v 5.5 14 7.5
v 3.5 14 6.5
v 5.5 14 6.5
v 3.5 14 -6.5
v 5.5 14 -6.5
v 3.5 14 -7.5
v 5.5 14 -7.5
v -1.5 1 7.5
v -0.5 1 7.5
v 1.5 1 7.5
v 2.5 1 7.5
v -1.5 1 6.5
v -0.5 1 6.5
v 1.5 1 6.5
v 2.5 1 6.5
v -4.5 2 -6.5
v -3.5 2 -6.5
v -4.5 2 -7.5
v -3.5 2 -7.5
v -5.5 10 7.5
v -4.5 10 7.5
v -5.5 10 -7.5
v -4.5 10 -7.5
v -4.5 11 7.5
v -2.5 11 7.5
v -4.5 11 -7.5
v -2.5 11 -7.5
v -2.5 12 7.5
v -0.5 12 7.5
v -2.5 12 -7.5
v -0.5 12 -7.5
v -0.5 13 7.5
v 1.5 13 7.5
v -0.5 13 -7.5
v 1.5 13 -7.5
v 1.5 14 7.5
v 3.5 14 7.5
v 1.5 14 -7.5
v 3.5 14 -7.5
v 3.5 15 7.5
v 5.5 15 7.5
v 3.5 15 -7.5
v 5.5 15 -7.5

# faces
f 3/3/1 2/3/1 1/3/1
f 4/3/1 2/3/1 3/3/1
f 7/5/1 6/5/1 5/5/1
f 9/5/1 7/5/1 5/5/1
f 9/5/1 8/5/1 7/5/1
f 10/5/1 8/5/1 9/5/1
f 11/5/1 8/5/1 10/5/1
f 12/5/1 8/5/1 11/5/1
f 13/5/1 8/5/1 12/5/1
f 14/5/1 8/5/1 13/5/1
f 15/5/1 8/5/1 14/5/1
f 16/5/1 8/5/1 15/5/1
f 17/5/1 9/5/1 5/5/1
f 17/1/1 10/1/1 9/1/1
f 18/5/1 11/5/1 10/5/1
f 18/1/1 10/1/1 17/1/1
f 19/1/1 12/1/1 11/1/1
f 19/5/1 11/5/1 18/5/1
f 20/5/1 13/5/1 12/5/1
f 20/1/1 12/1/1 19/1/1
f 21/1/1 14/1/1 13/1/1
f 21/5/1 13/5/1 20/5/1
f 22/5/1 15/5/1 14/5/1
f 22/1/1 14/1/1 21/1/1
f 23/5/1 21/5/1 20/5/1
f 23/5/1 17/5/1 5/5/1
f 23/5/1 22/5/1 21/5/1
f 23/5/1 20/5/1 19/5/1
f 23/5/1 19/5/1 18/5/1
f 23/5/1 18/5/1 17/5/1
f 24/5/1 22/5/1 23/5/1
f 25/5/1 22/5/1 24/5/1
f 26/5/1 22/5/1 25/5/1
f 27/5/1 22/5/1 26/5/1
f 28/5/1 22/5/1 27/5/1
f 29/5/1 22/5/1 28/5/1
f 30/5/1 15/5/1 22/5/1
f 30/5/1 22/5/1 29/5/1
f 31/5/1 23/5/1 5/5/1
f 31/1/1 24/1/1 23/1/1
f 32/5/1 25/5/1 24/5/1
f 32/1/1 24/1/1 31/1/1
f 33/1/1 26/1/1 25/1/1
f 33/5/1 25/5/1 32/5/1
f 34/5/1 27/5/1 26/5/1
f 34/1/1 26/1/1 33/1/1
f 35/1/1 28/1/1 27/1/1
f 35/5/1 27/5/1 34/5/1
f 36/5/1 29/5/1 28/5/1
f 36/1/1 28/1/1 35/1/1
f 37/1/1 30/1/1 29/1/1
f 37/5/1 29/5/1 36/5/1
f 38/5/1 15/5/1 30/5/1
f 38/1/1 30/1/1 37/1/1
f 39/5/1 35/5/1 34/5/1
f 39/5/1 37/5/1 36/5/1
f 39/5/1 38/5/1 37/5/1
f 39/5/1 34/5/1 33/5/1
f 39/5/1 33/5/1 32/5/1
f 39/5/1 32/5/1 31/5/1
f 39/5/1 31/5/1 5/5/1
f 39/5/1 36/5/1 35/5/1
f 40/5/1 38/5/1 39/5/1
f 41/5/1 38/5/1 40/5/1
f 42/5/1 38/5/1 41/5/1
f 43/5/1 38/5/1 42/5/1
f 44/5/1 15/5/1 38/5/1
f 44/5/1 38/5/1 43/5/1
f 45/5/1 39/5/1 5/5/1
f 46/1/1 40/1/1 39/1/1
f 46/5/1 39/5/1 45/5/1
f 47/5/1 41/5/1 40/5/1
f 47/1/1 40/1/1 46/1/1
f 48/1/1 42/1/1 41/1/1
f 48/5/1 41/5/1 47/5/1
f 49/5/1 43/5/1 42/5/1
f 49/1/1 42/1/1 48/1/1
f 50/1/1 44/1/1 43/1/1
f 50/5/1 43/5/1 49/5/1
f 51/5/1 15/5/1 44/5/1
f 51/1/1 44/1/1 50/1/1
f 52/5/1 15/5/1 51/5/1
f 55/3/1 54/3/1 53/3/1
f 56/3/1 54/3/1 55/3/1
f 59/3/1 58/3/1 57/3/1
f 60/3/1 58/3/1 59/3/1
f 63/4/1 62/4/1 61/4/1
f 64/4/1 62/4/1 63/4/1
f 67/3/1 66/3/1 65/3/1
f 68/3/1 66/3/1 67/3/1
f 71/4/1 70/4/1 69/4/1
f 72/4/1 70/4/1 71/4/1
f 75/3/1 74/3/1 73/3/1
f 76/3/1 74/3/1 75/3/1
f 79/3/1 78/3/1 77/3/1
f 80/3/1 78/3/1 79/3/1
f 81/3/2 82/3/2 85/3/2
f 85/3/2 82/3/2 86/3/2
f 83/3/2 84/3/2 87/3/2
f 87/3/2 84/3/2 88/3/2
f 89/5/2 90/5/2 91/5/2
f 91/5/2 90/5/2 92/5/2
f 93/3/2 94/3/2 97/3/2
f 97/3/2 94/3/2 98/3/2
f 95/3/2 96/3/2 99/3/2
f 99/3/2 96/3/2 100/3/2
f 101/4/2 102/4/2 103/4/2
f 103/4/2 102/4/2 104/4/2
f 105/3/2 106/3/2 109/3/2
f 109/3/2 106/3/2 110/3/2
f 107/3/2 108/3/2 111/3/2
f 111/3/2 108/3/2 112/3/2
f 113/3/2 114/3/2 117/3/2
f 117/3/2 114/3/2 118/3/2
f 115/3/2 116/3/2 119/3/2
f 119/3/2 116/3/2 120/3/2
f 121/4/2 122/4/2 123/4/2
f 123/4/2 122/4/2 124/4/2
f 125/3/2 126/3/2 129/3/2
f 129/3/2 126/3/2 130/3/2
f 127/3/2 128/3/2 131/3/2
f 131/3/2 128/3/2 132/3/2
f 133/5/2 134/5/2 135/5/2
f 135/5/2 134/5/2 136/5/2
f 136/5/2 134/5/2 137/5/2
f 137/5/2 134/5/2 138/5/2
f 138/5/2 134/5/2 139/5/2
f 139/5/2 134/5/2 140/5/2
f 133/5/2 135/5/2 141/5/2
f 135/1/2 136/1/2 141/1/2
f 136/5/2 137/5/2 142/5/2
f 141/1/2 136/1/2 142/1/2
f 137/1/2 138/1/2 143/1/2
f 142/5/2 137/5/2 143/5/2
f 138/5/2 139/5/2 144/5/2
f 143/1/2 138/1/2 144/1/2
f 139/1/2 140/1/2 145/1/2
f 144/5/2 139/5/2 145/5/2
f 140/5/2 134/5/2 146/5/2
f 145/1/2 140/1/2 146/1/2
f 144/5/2 145/5/2 147/5/2
f 143/5/2 144/5/2 147/5/2
f 145/5/2 146/5/2 147/5/2
f 142/5/2 143/5/2 147/5/2
f 141/5/2 142/5/2 147/5/2
f 133/5/2 141/5/2 147/5/2
f 147/5/2 146/5/2 148/5/2
f 148/5/2 146/5/2 149/5/2
f 149/5/2 146/5/2 150/5/2
f 150/5/2 146/5/2 151/5/2
f 151/5/2 146/5/2 152/5/2
f 152/5/2 146/5/2 153/5/2
f 146/5/2 134/5/2 154/5/2
f 153/5/2 146/5/2 154/5/2
f 133/5/2 147/5/2 155/5/2
f 147/1/2 148/1/2 155/1/2
f 148/5/2 149/5/2 156/5/2
f 155/1/2 148/1/2 156/1/2
f 149/1/2 150/1/2 157/1/2
f 156/5/2 149/5/2 157/5/2
f 150/5/2 151/5/2 158/5/2
f 157/1/2 150/1/2 158/1/2
f 151/1/2 152/1/2 159/1/2
f 158/5/2 151/5/2 159/5/2
f 152/5/2 153/5/2 160/5/2
f 159/1/2 152/1/2 160/1/2
f 153/1/2 154/1/2 161/1/2
f 160/5/2 153/5/2 161/5/2
f 154/5/2 134/5/2 162/5/2
f 161/1/2 154/1/2 162/1/2
f 158/5/2 159/5/2 163/5/2
f 160/5/2 161/5/2 163/5/2
f 161/5/2 162/5/2 163/5/2
f 157/5/2 158/5/2 163/5/2
f 156/5/2 157/5/2 163/5/2
f 155/5/2 156/5/2 163/5/2
f 133/5/2 155/5/2 163/5/2
f 159/5/2 160/5/2 163/5/2
f 163/5/2 162/5/2 164/5/2
f 164/5/2 162/5/2 165/5/2
f 165/5/2 162/5/2 166/5/2
f 166/5/2 162/5/2 167/5/2
f 162/5/2 134/5/2 168/5/2
f 167/5/2 162/5/2 168/5/2
f 133/5/2 163/5/2 169/5/2
f 163/1/2 164/1/2 169/1/2
f 164/5/2 165/5/2 170/5/2
f 169/1/2 164/1/2 170/1/2
f 165/1/2 166/1/2 171/1/2
f 170/5/2 165/5/2 171/5/2
f 166/5/2 167/5/2 172/5/2
f 171/1/2 166/1/2 172/1/2
f 167/1/2 168/1/2 173/1/2
f 172/5/2 167/5/2 173/5/2
f 168/5/2 134/5/2 174/5/2
f 173/1/2 168/1/2 174/1/2
f 170/5/2 171/5/2 175/5/2
f 172/5/2 173/5/2 175/5/2
f 173/5/2 174/5/2 175/5/2
f 169/5/2 170/5/2 175/5/2
f 133/5/2 169/5/2 175/5/2
f 171/5/2 172/5/2 175/5/2
f 174/5/2 134/5/2 176/5/2
f 175/5/2 174/5/2 176/5/2
f 175/3/2 176/3/2 178/3/2
f 178/3/2 176/3/2 179/3/2
f 178/3/2 179/3/2 181/3/2
f 179/3/2 180/3/2 181/3/2
f 177/3/2 178/3/2 181/3/2
f 181/3/2 180/3/2 182/3/2
f 185/3/3 184/3/3 183/3/3
f 186/3/3 184/3/3 185/3/3
f 188/3/3 187/3/3 186/3/3
f 189/3/3 187/3/3 188/3/3
f 193/4/3 192/4/3 191/4/3
f 194/4/3 192/4/3 193/4/3
f 195/3/3 190/3/3 189/3/3
f 196/3/3 190/3/3 195/3/3
f 200/3/3 197/3/3 196/3/3
f 201/3/3 197/3/3 200/3/3
f 203/4/3 199/4/3 198/4/3
f 204/4/3 199/4/3 203/4/3
f 205/3/3 202/3/3 201/3/3
f 206/3/3 202/3/3 205/3/3
f 208/3/3 207/3/3 206/3/3
f 209/3/3 207/3/3 208/3/3
f 213/5/3 211/5/3 210/5/3
f 213/5/3 212/5/3 211/5/3
f 214/5/3 212/5/3 213/5/3
f 215/5/3 212/5/3 214/5/3
f 216/5/3 212/5/3 215/5/3
f 217/5/3 212/5/3 216/5/3
f 218/5/3 212/5/3 217/5/3
f 219/5/3 213/5/3 210/5/3
f 219/1/3 214/1/3 213/1/3
f 220/5/3 215/5/3 214/5/3
f 220/1/3 214/1/3 219/1/3
f 221/1/3 218/1/3 217/1/3
f 221/5/3 217/5/3 216/5/3
f 222/5/3 212/5/3 218/5/3
f 222/1/3 218/1/3 221/1/3
f 223/5/3 212/5/3 222/5/3
f 225/5/3 219/5/3 210/5/3
f 225/5/3 220/5/3 219/5/3
f 226/5/3 220/5/3 225/5/3
f 227/5/3 215/5/3 220/5/3
f 227/5/3 220/5/3 226/5/3
f 228/5/3 221/5/3 216/5/3
f 228/5/3 223/5/3 222/5/3
f 228/5/3 222/5/3 221/5/3
f 229/5/3 223/5/3 228/5/3
f 231/2/3 227/2/3 226/2/3
f 232/5/3 215/5/3 227/5/3
f 232/2/3 227/2/3 231/2/3
f 233/1/3 216/1/3 215/1/3
f 233/5/3 215/5/3 232/5/3
f 234/5/3 228/5/3 216/5/3
f 234/1/3 216/1/3 233/1/3
f 235/1/3 229/1/3 228/1/3
f 235/5/3 228/5/3 234/5/3
f 236/5/3 223/5/3 229/5/3
f 236/1/3 229/1/3 235/1/3
f 237/3/3 224/3/3 223/3/3
f 239/5/3 231/5/3 230/5/3
f 239/5/3 235/5/3 234/5/3
f 239/5/3 232/5/3 231/5/3
f 239/5/3 236/5/3 235/5/3
f 239/5/3 234/5/3 233/5/3
f 239/5/3 233/5/3 232/5/3
f 240/5/3 236/5/3 239/5/3
f 241/5/3 236/5/3 240/5/3
f 242/5/3 236/5/3 241/5/3
f 243/5/3 236/5/3 242/5/3
f 244/5/3 236/5/3 243/5/3
f 245/5/3 223/5/3 236/5/3
f 245/5/3 236/5/3 244/5/3
f 246/3/3 238/3/3 237/3/3
f 249/2/3 241/2/3 240/2/3
f 250/5/3 242/5/3 241/5/3
f 250/2/3 241/2/3 249/2/3
f 251/5/3 244/5/3 243/5/3
f 251/1/3 245/1/3 244/1/3
f 252/5/3 223/5/3 245/5/3
f 252/1/3 245/1/3 251/1/3
f 253/5/3 249/5/3 248/5/3
f 253/5/3 250/5/3 249/5/3
f 254/5/3 242/5/3 250/5/3
f 254/5/3 250/5/3 253/5/3
f 255/5/3 251/5/3 243/5/3
f 255/5/3 252/5/3 251/5/3
f 256/5/3 223/5/3 252/5/3
f 256/5/3 252/5/3 255/5/3
f 257/3/3 247/3/3 246/3/3
f 259/5/3 253/5/3 248/5/3
f 259/1/3 254/1/3 253/1/3
f 260/5/3 242/5/3 254/5/3
f 260/1/3 254/1/3 259/1/3
f 261/1/3 243/1/3 242/1/3
f 261/5/3 242/5/3 260/5/3
f 262/5/3 255/5/3 243/5/3
f 262/1/3 243/1/3 261/1/3
f 263/1/3 256/1/3 255/1/3
f 263/5/3 255/5/3 262/5/3
f 264/5/3 223/5/3 256/5/3
f 264/1/3 256/1/3 263/1/3
f 265/5/3 259/5/3 248/5/3
f 265/5/3 263/5/3 262/5/3
f 265/5/3 264/5/3 263/5/3
f 265/5/3 262/5/3 261/5/3
f 265/5/3 261/5/3 260/5/3
f 265/5/3 260/5/3 259/5/3
f 266/5/3 223/5/3 264/5/3
f 266/5/3 264/5/3 265/5/3
f 266/3/3 237/3/3 223/3/3
f 266/3/3 257/3/3 246/3/3
f 266/3/3 246/3/3 237/3/3
f 266/3/3 258/3/3 257/3/3
f 267/3/3 258/3/3 266/3/3
f 268/5/4 269/5/4 273/5/4
f 271/5/4 272/5/4 274/5/4
f 270/5/4 271/5/4 274/5/4
f 274/5/4 272/5/4 275/5/4
f 275/5/4 272/5/4 276/5/4
f 276/5/4 272/5/4 277/5/4
f 277/5/4 272/5/4 278/5/4
f 278/5/4 272/5/4 279/5/4
f 279/5/4 272/5/4 280/5/4
f 277/5/4 278/5/4 282/5/4
f 278/1/4 279/1/4 282/1/4
f 279/5/4 280/5/4 283/5/4
f 282/1/4 279/1/4 283/1/4
f 268/5/4 273/5/4 284/5/4
f 273/1/4 274/1/4 284/1/4
f 274/1/4 275/1/4 284/1/4
f 275/5/4 276/5/4 285/5/4
f 284/1/4 275/1/4 285/1/4
f 276/1/4 277/1/4 286/1/4
f 285/5/4 276/5/4 286/5/4
f 282/5/4 283/5/4 287/5/4
f 286/1/4 277/1/4 287/1/4
f 277/5/4 282/5/4 287/5/4
f 280/3/4 281/3/4 288/3/4
f 285/5/4 286/5/4 290/5/4
f 268/5/4 284/5/4 290/5/4
f 284/5/4 285/5/4 290/5/4
f 286/5/4 287/5/4 290/5/4
f 290/5/4 287/5/4 291/5/4
f 291/5/4 287/5/4 292/5/4
f 287/5/4 283/5/4 293/5/4
f 292/5/4 287/5/4 293/5/4
f 288/3/4 289/3/4 294/3/4
f 293/5/4 283/5/4 296/5/4
f 283/5/4 280/5/4 297/5/4
f 296/5/4 283/5/4 297/5/4
f 294/3/4 295/3/4 298/3/4
f 268/5/4 290/5/4 300/5/4
f 290/1/4 291/1/4 300/1/4
f 291/5/4 292/5/4 301/5/4
f 300/1/4 291/1/4 301/1/4
f 292/1/4 293/1/4 302/1/4
f 301/5/4 292/5/4 302/5/4
f 293/5/4 296/5/4 303/5/4
f 302/1/4 293/1/4 303/1/4
f 296/1/4 297/1/4 304/1/4
f 303/5/4 296/5/4 304/5/4
f 297/5/4 280/5/4 305/5/4
f 304/1/4 297/1/4 305/1/4
f 301/5/4 302/5/4 306/5/4
f 303/5/4 304/5/4 306/5/4
f 304/5/4 305/5/4 306/5/4
f 302/5/4 303/5/4 306/5/4
f 268/5/4 300/5/4 306/5/4
f 300/5/4 301/5/4 306/5/4
f 305/5/4 280/5/4 307/5/4
f 306/5/4 305/5/4 307/5/4
f 288/3/4 294/3/4 307/3/4
f 298/3/4 299/3/4 307/3/4
f 280/3/4 288/3/4 307/3/4
f 294/3/4 298/3/4 307/3/4
f 307/3/4 299/3/4 308/3/4
f 309/3/4 310/3/4 313/3/4
f 313/3/4 310/3/4 314/3/4
f 311/5/4 312/5/4 316/5/4
f 316/5/4 312/5/4 317/5/4
f 314/3/4 315/3/4 318/3/4
f 318/3/4 315/3/4 319/3/4
f 319/3/4 320/3/4 321/3/4
f 321/3/4 320/3/4 322/3/4
f 322/3/4 323/3/4 324/3/4
f 324/3/4 323/3/4 325/3/4
f 325/3/4 326/3/4 327/3/4
f 327/3/4 326/3/4 328/3/4
f 328/3/4 329/3/4 330/3/4
f 330/3/4 329/3/4 331/3/4
f 337/4/5 333/4/5 332/4/5
f 338/4/5 333/4/5 337/4/5
f 339/4/5 335/4/5 334/4/5
f 340/4/5 335/4/5 339/4/5
f 342/5/5 338/5/5 337/5/5
f 342/5/5 341/5/5 340/5/5
f 342/5/5 340/5/5 339/5/5
f 342/5/5 339/5/5 338/5/5
f 342/5/5 337/5/5 336/5/5
f 343/5/5 341/5/5 342/5/5
f 346/5/5 345/5/5 344/5/5
f 347/5/5 345/5/5 346/5/5
f 350/3/5 349/3/5 348/3/5
f 351/3/5 350/3/5 348/3/5
f 352/3/5 351/3/5 348/3/5
f 353/3/5 352/3/5 348/3/5
f 354/3/5 353/3/5 348/3/5
f 355/3/5 354/3/5 348/3/5
f 356/3/5 355/3/5 348/3/5
f 357/3/5 356/3/5 348/3/5
f 358/3/5 357/3/5 348/3/5
f 359/3/5 357/3/5 358/3/5
f 362/3/5 361/3/5 360/3/5
f 363/3/5 361/3/5 362/3/5
f 366/3/5 365/3/5 364/3/5
f 367/3/5 365/3/5 366/3/5
f 370/3/5 369/3/5 368/3/5
f 371/3/5 369/3/5 370/3/5
f 374/3/5 373/3/5 372/3/5
f 375/3/5 373/3/5 374/3/5
f 378/3/5 377/3/5 376/3/5
f 379/3/5 377/3/5 378/3/5
f 382/3/5 381/3/5 380/3/5
f 383/3/5 381/3/5 382/3/5
f 386/3/5 385/3/5 384/3/5
f 387/3/5 385/3/5 386/3/5
f 390/3/5 389/3/5 388/3/5
f 391/3/5 389/3/5 390/3/5
f 394/3/5 393/3/5 392/3/5
f 395/3/5 393/3/5 394/3/5
f 398/3/5 397/3/5 396/3/5
f 399/3/5 397/3/5 398/3/5
f 400/4/6 401/4/6 404/4/6
f 404/4/6 401/4/6 405/4/6
f 402/4/6 403/4/6 406/4/6
f 406/4/6 403/4/6 407/4/6
f 408/5/6 409/5/6 410/5/6
f 410/5/6 409/5/6 411/5/6
f 412/3/6 413/3/6 414/3/6
f 414/3/6 413/3/6 415/3/6
f 416/3/6 417/3/6 418/3/6
f 418/3/6 417/3/6 419/3/6
f 420/3/6 421/3/6 422/3/6
f 422/3/6 421/3/6 423/3/6
f 424/3/6 425/3/6 426/3/6
f 426/3/6 425/3/6 427/3/6
f 428/3/6 429/3/6 430/3/6
f 430/3/6 429/3/6 431/3/6
f 432/3/6 433/3/6 434/3/6
f 434/3/6 433/3/6 435/3/6
