# MagicaVoxel @ Ephtracy

# group
g 2-party-normal-2

# material
mtllib 2-party-normal-2.mtl
usemtl palette

# normals
vn -1 0 0
vn 1 0 0
vn 0 0 1
vn 0 0 -1
vn 0 -1 0
vn 0 1 0

# texcoords
vt 0.447266 0.5
vt 0.853516 0.5
vt 0.958984 0.5
vt 0.974609 0.5
vt 0.978516 0.5

# verts
v -6 9 7.5
v -6 9 -7.5
v -6 10 7.5
v -6 10 -7.5
v -5 0 6.5
v -5 0 -6.5
v -5 2 5.5
v -5 2 2.5
v -5 2 0.5
v -5 2 -0.5
v -5 2 -2.5
v -5 2 -5.5
v -5 3 5.5
v -5 3 2.5
v -5 3 0.5
v -5 3 -0.5
v -5 3 -2.5
v -5 3 -5.5
v -5 5 5.5
v -5 5 4.5
v -5 5 2.5
v -5 5 0.5
v -5 5 -0.5
v -5 5 -2.5
v -5 5 -4.5
v -5 5 -5.5
v -5 6 5.5
v -5 6 4.5
v -5 6 2.5
v -5 6 0.5
v -5 6 -0.5
v -5 6 -2.5
v -5 6 -4.5
v -5 6 -5.5
v -5 8 5.5
v -5 8 3.5
v -5 8 1.5
v -5 8 -1.5
v -5 8 -3.5
v -5 8 -5.5
v -5 9 6.5
v -5 9 5.5
v -5 9 3.5
v -5 9 1.5
v -5 9 -1.5
v -5 9 -3.5
v -5 9 -5.5
v -5 9 -6.5
v -5 10 7.5
v -5 10 -7.5
v -5 11 7.5
v -5 11 -7.5
v -4 11 7.5
v -4 11 -7.5
v -4 12 7.5
v -4 12 -7.5
v -3 12 7.5
v -3 12 -7.5
v -3 13 7.5
v -3 13 -7.5
v -2 0 7.5
v -2 0 6.5
v -2 1 7.5
v -2 1 6.5
v -2 13 7.5
v -2 13 -7.5
v -2 14 7.5
v -2 14 -7.5
v -1 14 7.5
v -1 14 -7.5
v -1 15 7.5
v -1 15 -7.5
v 1 0 7.5
v 1 0 6.5
v 1 1 7.5
v 1 1 6.5
v 1 13 7.5
v 1 13 6.5
v 1 13 -6.5
v 1 13 -7.5
v 1 14 7.5
v 1 14 6.5
v 1 14 -6.5
v 1 14 -7.5
v 2 12 7.5
v 2 12 6.5
v 2 12 -6.5
v 2 12 -7.5
v 2 13 7.5
v 2 13 6.5
v 2 13 -6.5
v 2 13 -7.5
v 3 11 7.5
v 3 11 6.5
v 3 11 -6.5
v 3 11 -7.5
v 3 12 7.5
v 3 12 6.5
v 3 12 -6.5
v 3 12 -7.5
v 4 10 7.5
v 4 10 6.5
v 4 10 -6.5
v 4 10 -7.5
v 4 11 7.5
v 4 11 6.5
v 4 11 -6.5
v 4 11 -7.5
v 5 9 7.5
v 5 9 6.5
v 5 9 -6.5
v 5 9 -7.5
v 5 10 7.5
v 5 10 6.5
v 5 10 -6.5
v 5 10 -7.5
v -5 9 7.5
v -5 9 6.5
v -5 9 -6.5
v -5 9 -7.5
v -5 10 7.5
v -5 10 6.5
v -5 10 -6.5
v -5 10 -7.5
v -4 10 7.5
v -4 10 6.5
v -4 10 -6.5
v -4 10 -7.5
v -4 11 7.5
v -4 11 6.5
v -4 11 -6.5
v -4 11 -7.5
v -3 11 7.5
v -3 11 6.5
v -3 11 -6.5
v -3 11 -7.5
v -3 12 7.5
v -3 12 6.5
v -3 12 -6.5
v -3 12 -7.5
v -2 12 7.5
v -2 12 6.5
v -2 12 -6.5
v -2 12 -7.5
v -2 13 7.5
v -2 13 6.5
v -2 13 -6.5
v -2 13 -7.5
v -1 0 7.5
v -1 0 6.5
v -1 1 7.5
v -1 1 6.5
v -1 13 7.5
v -1 13 6.5
v -1 13 -6.5
v -1 13 -7.5
v -1 14 7.5
v -1 14 6.5
v -1 14 -6.5
v -1 14 -7.5
v 1 14 7.5
v 1 14 -7.5
v 1 15 7.5
v 1 15 -7.5
v 2 0 7.5
v 2 0 6.5
v 2 1 7.5
v 2 1 6.5
v 2 13 7.5
v 2 13 -7.5
v 2 14 7.5
v 2 14 -7.5
v 3 12 7.5
v 3 12 -7.5
v 3 13 7.5
v 3 13 -7.5
v 4 11 7.5
v 4 11 -7.5
v 4 12 7.5
v 4 12 -7.5
v 5 0 6.5
v 5 0 -6.5
v 5 2 5.5
v 5 2 2.5
v 5 2 0.5
v 5 2 -0.5
v 5 2 -2.5
v 5 2 -5.5
v 5 3 5.5
v 5 3 2.5
v 5 3 0.5
v 5 3 -0.5
v 5 3 -2.5
v 5 3 -5.5
v 5 5 5.5
v 5 5 4.5
v 5 5 2.5
v 5 5 0.5
v 5 5 -0.5
v 5 5 -2.5
v 5 5 -4.5
v 5 5 -5.5
v 5 6 5.5
v 5 6 4.5
v 5 6 2.5
v 5 6 0.5
v 5 6 -0.5
v 5 6 -2.5
v 5 6 -4.5
v 5 6 -5.5
v 5 8 5.5
v 5 8 3.5
v 5 8 1.5
v 5 8 -1.5
v 5 8 -3.5
v 5 8 -5.5
v 5 9 6.5
v 5 9 5.5
v 5 9 3.5
v 5 9 1.5
v 5 9 -1.5
v 5 9 -3.5
v 5 9 -5.5
v 5 9 -6.5
v 5 10 7.5
v 5 10 -7.5
v 5 11 7.5
v 5 11 -7.5
v 6 9 7.5
v 6 9 -7.5
v 6 10 7.5
v 6 10 -7.5
v -6 9 7.5
v -6 10 7.5
v -5 9 7.5
v -5 10 7.5
v -5 11 7.5
v -4 10 7.5
v -4 11 7.5
v -4 12 7.5
v -3 11 7.5
v -3 12 7.5
v -3 13 7.5
v -2 0 7.5
v -2 1 7.5
v -2 12 7.5
v -2 13 7.5
v -2 14 7.5
v -1 0 7.5
v -1 1 7.5
v -1 13 7.5
v -1 14 7.5
v -1 15 7.5
v 1 0 7.5
v 1 1 7.5
v 1 13 7.5
v 1 14 7.5
v 1 15 7.5
v 2 0 7.5
v 2 1 7.5
v 2 12 7.5
v 2 13 7.5
v 2 14 7.5
v 3 11 7.5
v 3 12 7.5
v 3 13 7.5
v 4 10 7.5
v 4 11 7.5
v 4 12 7.5
v 5 9 7.5
v 5 10 7.5
v 5 11 7.5
v 6 9 7.5
v 6 10 7.5
v -5 0 6.5
v -5 9 6.5
v -5 10 6.5
v -4 2 6.5
v -4 3 6.5
v -4 5 6.5
v -4 6 6.5
v -4 8 6.5
v -4 9 6.5
v -4 10 6.5
v -4 11 6.5
v -3 2 6.5
v -3 3 6.5
v -3 8 6.5
v -3 9 6.5
v -3 11 6.5
v -3 12 6.5
v -2 0 6.5
v -2 1 6.5
v -2 3 6.5
v -2 8 6.5
v -2 9 6.5
v -2 11 6.5
v -2 12 6.5
v -2 13 6.5
v -1 0 6.5
v -1 1 6.5
v -1 3 6.5
v -1 5 6.5
v -1 6 6.5
v -1 8 6.5
v -1 9 6.5
v -1 11 6.5
v -1 12 6.5
v -1 13 6.5
v -1 14 6.5
v 1 0 6.5
v 1 1 6.5
v 1 3 6.5
v 1 5 6.5
v 1 6 6.5
v 1 8 6.5
v 1 9 6.5
v 1 11 6.5
v 1 12 6.5
v 1 13 6.5
v 1 14 6.5
v 2 0 6.5
v 2 1 6.5
v 2 3 6.5
v 2 8 6.5
v 2 9 6.5
v 2 11 6.5
v 2 12 6.5
v 2 13 6.5
v 3 2 6.5
v 3 3 6.5
v 3 8 6.5
v 3 9 6.5
v 3 11 6.5
v 3 12 6.5
v 4 2 6.5
v 4 3 6.5
v 4 5 6.5
v 4 6 6.5
v 4 8 6.5
v 4 9 6.5
v 4 10 6.5
v 4 11 6.5
v 5 0 6.5
v 5 9 6.5
v 5 10 6.5
v -5 0 -6.5
v -5 9 -6.5
v -5 10 -6.5
v -4 1 -6.5
v -4 3 -6.5
v -4 5 -6.5
v -4 6 -6.5
v -4 8 -6.5
v -4 9 -6.5
v -4 10 -6.5
v -4 11 -6.5
v -3 11 -6.5
v -3 12 -6.5
v -2 8 -6.5
v -2 9 -6.5
v -2 11 -6.5
v -2 12 -6.5
v -2 13 -6.5
v -1 1 -6.5
v -1 3 -6.5
v -1 5 -6.5
v -1 6 -6.5
v -1 11 -6.5
v -1 12 -6.5
v -1 13 -6.5
v -1 14 -6.5
v 1 1 -6.5
v 1 3 -6.5
v 1 5 -6.5
v 1 6 -6.5
v 1 11 -6.5
v 1 12 -6.5
v 1 13 -6.5
v 1 14 -6.5
v 2 8 -6.5
v 2 9 -6.5
v 2 11 -6.5
v 2 12 -6.5
v 2 13 -6.5
v 3 11 -6.5
v 3 12 -6.5
v 4 1 -6.5
v 4 3 -6.5
v 4 5 -6.5
v 4 6 -6.5
v 4 8 -6.5
v 4 9 -6.5
v 4 10 -6.5
v 4 11 -6.5
v 5 0 -6.5
v 5 9 -6.5
v 5 10 -6.5
v -6 9 -7.5
v -6 10 -7.5
v -5 9 -7.5
v -5 10 -7.5
v -5 11 -7.5
v -4 10 -7.5
v -4 11 -7.5
v -4 12 -7.5
v -3 11 -7.5
v -3 12 -7.5
v -3 13 -7.5
v -2 12 -7.5
v -2 13 -7.5
v -2 14 -7.5
v -1 13 -7.5
v -1 14 -7.5
v -1 15 -7.5
v 1 13 -7.5
v 1 14 -7.5
v 1 15 -7.5
v 2 12 -7.5
v 2 13 -7.5
v 2 14 -7.5
v 3 11 -7.5
v 3 12 -7.5
v 3 13 -7.5
v 4 10 -7.5
v 4 11 -7.5
v 4 12 -7.5
v 5 9 -7.5
v 5 10 -7.5
v 5 11 -7.5
v 6 9 -7.5
v 6 10 -7.5
v -2 0 7.5
v -1 0 7.5
v 1 0 7.5
v 2 0 7.5
v -5 0 6.5
v -2 0 6.5
v -1 0 6.5
v 1 0 6.5
v 2 0 6.5
v 5 0 6.5
v -5 0 -6.5
v 5 0 -6.5
v -6 9 7.5
v -5 9 7.5
v 5 9 7.5
v 6 9 7.5
v -5 9 6.5
v 5 9 6.5
v -5 9 5.5
v 5 9 5.5
v -5 9 3.5
v 5 9 3.5
v -5 9 1.5
v 5 9 1.5
v -5 9 -1.5
v 5 9 -1.5
v -5 9 -3.5
v 5 9 -3.5
v -5 9 -5.5
v 5 9 -5.5
v -5 9 -6.5
v 5 9 -6.5
v -6 9 -7.5
v -5 9 -7.5
v 5 9 -7.5
v 6 9 -7.5
v -5 10 7.5
v -4 10 7.5
v 4 10 7.5
v 5 10 7.5
v -5 10 6.5
v -4 10 6.5
v 4 10 6.5
v 5 10 6.5
v -5 10 -6.5
v -4 10 -6.5
v 4 10 -6.5
v 5 10 -6.5
v -5 10 -7.5
v -4 10 -7.5
v 4 10 -7.5
v 5 10 -7.5
v -4 11 7.5
v -3 11 7.5
v 3 11 7.5
v 4 11 7.5
v -4 11 6.5
v -3 11 6.5
v 3 11 6.5
v 4 11 6.5
v -4 11 -6.5
v -3 11 -6.5
v 3 11 -6.5
v 4 11 -6.5
v -4 11 -7.5
v -3 11 -7.5
v 3 11 -7.5
v 4 11 -7.5
v -3 12 7.5
v -2 12 7.5
v 2 12 7.5
v 3 12 7.5
v -3 12 6.5
v -2 12 6.5
v 2 12 6.5
v 3 12 6.5
v -3 12 -6.5
v -2 12 -6.5
v 2 12 -6.5
v 3 12 -6.5
v -3 12 -7.5
v -2 12 -7.5
v 2 12 -7.5
v 3 12 -7.5
v -2 13 7.5
v -1 13 7.5
v 1 13 7.5
v 2 13 7.5
v -2 13 6.5
v -1 13 6.5
v 1 13 6.5
v 2 13 6.5
v -2 13 -6.5
v -1 13 -6.5
v 1 13 -6.5
v 2 13 -6.5
v -2 13 -7.5
v -1 13 -7.5
v 1 13 -7.5
v 2 13 -7.5
v -1 14 7.5
v 1 14 7.5
v -1 14 6.5
v 1 14 6.5
v -1 14 -6.5
v 1 14 -6.5
v -1 14 -7.5
v 1 14 -7.5
v -2 1 7.5
v -1 1 7.5
v 1 1 7.5
v 2 1 7.5
v -2 1 6.5
v -1 1 6.5
v 1 1 6.5
v 2 1 6.5
v -6 10 7.5
v -5 10 7.5
v 5 10 7.5
v 6 10 7.5
v -6 10 -7.5
v -5 10 -7.5
v 5 10 -7.5
v 6 10 -7.5
v -5 11 7.5
v -4 11 7.5
v 4 11 7.5
v 5 11 7.5
v -5 11 -7.5
v -4 11 -7.5
v 4 11 -7.5
v 5 11 -7.5
v -4 12 7.5
v -3 12 7.5
v 3 12 7.5
v 4 12 7.5
v -4 12 -7.5
v -3 12 -7.5
v 3 12 -7.5
v 4 12 -7.5
v -3 13 7.5
v -2 13 7.5
v 2 13 7.5
v 3 13 7.5
v -3 13 -7.5
v -2 13 -7.5
v 2 13 -7.5
v 3 13 -7.5
v -2 14 7.5
v -1 14 7.5
v 1 14 7.5
v 2 14 7.5
v -2 14 -7.5
v -1 14 -7.5
v 1 14 -7.5
v 2 14 -7.5
v -1 15 7.5
v 1 15 7.5
v -1 15 -7.5
v 1 15 -7.5

# faces
f 3/2/1 2/2/1 1/2/1
f 4/2/1 2/2/1 3/2/1
f 7/5/1 6/5/1 5/5/1
f 8/5/1 6/5/1 7/5/1
f 9/5/1 6/5/1 8/5/1
f 10/5/1 6/5/1 9/5/1
f 11/5/1 6/5/1 10/5/1
f 12/5/1 6/5/1 11/5/1
f 13/5/1 7/5/1 5/5/1
f 13/1/1 8/1/1 7/1/1
f 14/5/1 9/5/1 8/5/1
f 14/1/1 8/1/1 13/1/1
f 15/1/1 10/1/1 9/1/1
f 15/5/1 9/5/1 14/5/1
f 16/5/1 11/5/1 10/5/1
f 16/1/1 10/1/1 15/1/1
f 17/1/1 12/1/1 11/1/1
f 17/5/1 11/5/1 16/5/1
f 18/5/1 6/5/1 12/5/1
f 18/1/1 12/1/1 17/1/1
f 19/5/1 17/5/1 16/5/1
f 19/5/1 16/5/1 15/5/1
f 19/5/1 18/5/1 17/5/1
f 19/5/1 15/5/1 14/5/1
f 19/5/1 14/5/1 13/5/1
f 19/5/1 13/5/1 5/5/1
f 20/5/1 18/5/1 19/5/1
f 21/5/1 18/5/1 20/5/1
f 22/5/1 18/5/1 21/5/1
f 23/5/1 18/5/1 22/5/1
f 24/5/1 18/5/1 23/5/1
f 25/5/1 18/5/1 24/5/1
f 26/5/1 6/5/1 18/5/1
f 26/5/1 18/5/1 25/5/1
f 27/5/1 19/5/1 5/5/1
f 27/1/1 20/1/1 19/1/1
f 28/5/1 21/5/1 20/5/1
f 28/1/1 20/1/1 27/1/1
f 29/1/1 22/1/1 21/1/1
f 29/5/1 21/5/1 28/5/1
f 30/5/1 23/5/1 22/5/1
f 30/1/1 22/1/1 29/1/1
f 31/1/1 24/1/1 23/1/1
f 31/5/1 23/5/1 30/5/1
f 32/5/1 25/5/1 24/5/1
f 32/1/1 24/1/1 31/1/1
f 33/1/1 26/1/1 25/1/1
f 33/5/1 25/5/1 32/5/1
f 34/5/1 6/5/1 26/5/1
f 34/1/1 26/1/1 33/1/1
f 35/5/1 31/5/1 30/5/1
f 35/5/1 33/5/1 32/5/1
f 35/5/1 34/5/1 33/5/1
f 35/5/1 30/5/1 29/5/1
f 35/5/1 29/5/1 28/5/1
f 35/5/1 28/5/1 27/5/1
f 35/5/1 27/5/1 5/5/1
f 35/5/1 32/5/1 31/5/1
f 36/5/1 34/5/1 35/5/1
f 37/5/1 34/5/1 36/5/1
f 38/5/1 34/5/1 37/5/1
f 39/5/1 34/5/1 38/5/1
f 40/5/1 6/5/1 34/5/1
f 40/5/1 34/5/1 39/5/1
f 41/5/1 35/5/1 5/5/1
f 42/1/1 36/1/1 35/1/1
f 42/5/1 35/5/1 41/5/1
f 43/5/1 37/5/1 36/5/1
f 43/1/1 36/1/1 42/1/1
f 44/1/1 38/1/1 37/1/1
f 44/5/1 37/5/1 43/5/1
f 45/5/1 39/5/1 38/5/1
f 45/1/1 38/1/1 44/1/1
f 46/1/1 40/1/1 39/1/1
f 46/5/1 39/5/1 45/5/1
f 47/5/1 6/5/1 40/5/1
f 47/1/1 40/1/1 46/1/1
f 48/5/1 6/5/1 47/5/1
f 51/2/1 50/2/1 49/2/1
f 52/2/1 50/2/1 51/2/1
f 55/2/1 54/2/1 53/2/1
f 56/2/1 54/2/1 55/2/1
f 59/2/1 58/2/1 57/2/1
f 60/2/1 58/2/1 59/2/1
f 63/4/1 62/4/1 61/4/1
f 64/4/1 62/4/1 63/4/1
f 67/2/1 66/2/1 65/2/1
f 68/2/1 66/2/1 67/2/1
f 71/2/1 70/2/1 69/2/1
f 72/2/1 70/2/1 71/2/1
f 75/4/1 74/4/1 73/4/1
f 76/4/1 74/4/1 75/4/1
f 81/2/1 78/2/1 77/2/1
f 82/2/1 78/2/1 81/2/1
f 83/2/1 80/2/1 79/2/1
f 84/2/1 80/2/1 83/2/1
f 89/2/1 86/2/1 85/2/1
f 90/2/1 86/2/1 89/2/1
f 91/2/1 88/2/1 87/2/1
f 92/2/1 88/2/1 91/2/1
f 97/2/1 94/2/1 93/2/1
f 98/2/1 94/2/1 97/2/1
f 99/2/1 96/2/1 95/2/1
f 100/2/1 96/2/1 99/2/1
f 105/2/1 102/2/1 101/2/1
f 106/2/1 102/2/1 105/2/1
f 107/2/1 104/2/1 103/2/1
f 108/2/1 104/2/1 107/2/1
f 113/2/1 110/2/1 109/2/1
f 114/2/1 110/2/1 113/2/1
f 115/2/1 112/2/1 111/2/1
f 116/2/1 112/2/1 115/2/1
f 117/2/2 118/2/2 121/2/2
f 121/2/2 118/2/2 122/2/2
f 119/2/2 120/2/2 123/2/2
f 123/2/2 120/2/2 124/2/2
f 125/2/2 126/2/2 129/2/2
f 129/2/2 126/2/2 130/2/2
f 127/2/2 128/2/2 131/2/2
f 131/2/2 128/2/2 132/2/2
f 133/2/2 134/2/2 137/2/2
f 137/2/2 134/2/2 138/2/2
f 135/2/2 136/2/2 139/2/2
f 139/2/2 136/2/2 140/2/2
f 141/2/2 142/2/2 145/2/2
f 145/2/2 142/2/2 146/2/2
f 143/2/2 144/2/2 147/2/2
f 147/2/2 144/2/2 148/2/2
f 149/4/2 150/4/2 151/4/2
f 151/4/2 150/4/2 152/4/2
f 153/2/2 154/2/2 157/2/2
f 157/2/2 154/2/2 158/2/2
f 155/2/2 156/2/2 159/2/2
f 159/2/2 156/2/2 160/2/2
f 161/2/2 162/2/2 163/2/2
f 163/2/2 162/2/2 164/2/2
f 165/4/2 166/4/2 167/4/2
f 167/4/2 166/4/2 168/4/2
f 169/2/2 170/2/2 171/2/2
f 171/2/2 170/2/2 172/2/2
f 173/2/2 174/2/2 175/2/2
f 175/2/2 174/2/2 176/2/2
f 177/2/2 178/2/2 179/2/2
f 179/2/2 178/2/2 180/2/2
f 181/5/2 182/5/2 183/5/2
f 183/5/2 182/5/2 184/5/2
f 184/5/2 182/5/2 185/5/2
f 185/5/2 182/5/2 186/5/2
f 186/5/2 182/5/2 187/5/2
f 187/5/2 182/5/2 188/5/2
f 181/5/2 183/5/2 189/5/2
f 183/1/2 184/1/2 189/1/2
f 184/5/2 185/5/2 190/5/2
f 189/1/2 184/1/2 190/1/2
f 185/1/2 186/1/2 191/1/2
f 190/5/2 185/5/2 191/5/2
f 186/5/2 187/5/2 192/5/2
f 191/1/2 186/1/2 192/1/2
f 187/1/2 188/1/2 193/1/2
f 192/5/2 187/5/2 193/5/2
f 188/5/2 182/5/2 194/5/2
f 193/1/2 188/1/2 194/1/2
f 192/5/2 193/5/2 195/5/2
f 191/5/2 192/5/2 195/5/2
f 193/5/2 194/5/2 195/5/2
f 190/5/2 191/5/2 195/5/2
f 189/5/2 190/5/2 195/5/2
f 181/5/2 189/5/2 195/5/2
f 195/5/2 194/5/2 196/5/2
f 196/5/2 194/5/2 197/5/2
f 197/5/2 194/5/2 198/5/2
f 198/5/2 194/5/2 199/5/2
f 199/5/2 194/5/2 200/5/2
f 200/5/2 194/5/2 201/5/2
f 194/5/2 182/5/2 202/5/2
f 201/5/2 194/5/2 202/5/2
f 181/5/2 195/5/2 203/5/2
f 195/1/2 196/1/2 203/1/2
f 196/5/2 197/5/2 204/5/2
f 203/1/2 196/1/2 204/1/2
f 197/1/2 198/1/2 205/1/2
f 204/5/2 197/5/2 205/5/2
f 198/5/2 199/5/2 206/5/2
f 205/1/2 198/1/2 206/1/2
f 199/1/2 200/1/2 207/1/2
f 206/5/2 199/5/2 207/5/2
f 200/5/2 201/5/2 208/5/2
f 207/1/2 200/1/2 208/1/2
f 201/1/2 202/1/2 209/1/2
f 208/5/2 201/5/2 209/5/2
f 202/5/2 182/5/2 210/5/2
f 209/1/2 202/1/2 210/1/2
f 206/5/2 207/5/2 211/5/2
f 208/5/2 209/5/2 211/5/2
f 209/5/2 210/5/2 211/5/2
f 205/5/2 206/5/2 211/5/2
f 204/5/2 205/5/2 211/5/2
f 203/5/2 204/5/2 211/5/2
f 181/5/2 203/5/2 211/5/2
f 207/5/2 208/5/2 211/5/2
f 211/5/2 210/5/2 212/5/2
f 212/5/2 210/5/2 213/5/2
f 213/5/2 210/5/2 214/5/2
f 214/5/2 210/5/2 215/5/2
f 210/5/2 182/5/2 216/5/2
f 215/5/2 210/5/2 216/5/2
f 181/5/2 211/5/2 217/5/2
f 211/1/2 212/1/2 218/1/2
f 217/5/2 211/5/2 218/5/2
f 212/5/2 213/5/2 219/5/2
f 218/1/2 212/1/2 219/1/2
f 213/1/2 214/1/2 220/1/2
f 219/5/2 213/5/2 220/5/2
f 214/5/2 215/5/2 221/5/2
f 220/1/2 214/1/2 221/1/2
f 215/1/2 216/1/2 222/1/2
f 221/5/2 215/5/2 222/5/2
f 216/5/2 182/5/2 223/5/2
f 222/1/2 216/1/2 223/1/2
f 223/5/2 182/5/2 224/5/2
f 225/2/2 226/2/2 227/2/2
f 227/2/2 226/2/2 228/2/2
f 229/2/2 230/2/2 231/2/2
f 231/2/2 230/2/2 232/2/2
f 235/2/3 234/2/3 233/2/3
f 236/2/3 234/2/3 235/2/3
f 238/2/3 237/2/3 236/2/3
f 239/2/3 237/2/3 238/2/3
f 241/2/3 240/2/3 239/2/3
f 242/2/3 240/2/3 241/2/3
f 246/2/3 243/2/3 242/2/3
f 247/2/3 243/2/3 246/2/3
f 249/4/3 245/4/3 244/4/3
f 250/4/3 245/4/3 249/4/3
f 251/2/3 248/2/3 247/2/3
f 252/2/3 248/2/3 251/2/3
f 257/2/3 253/2/3 252/2/3
f 258/2/3 253/2/3 257/2/3
f 259/4/3 255/4/3 254/4/3
f 260/4/3 255/4/3 259/4/3
f 262/2/3 257/2/3 256/2/3
f 263/2/3 257/2/3 262/2/3
f 265/2/3 262/2/3 261/2/3
f 266/2/3 262/2/3 265/2/3
f 268/2/3 265/2/3 264/2/3
f 269/2/3 265/2/3 268/2/3
f 271/2/3 268/2/3 267/2/3
f 272/2/3 268/2/3 271/2/3
f 273/2/3 271/2/3 270/2/3
f 274/2/3 271/2/3 273/2/3
f 278/5/3 276/5/3 275/5/3
f 278/5/3 277/5/3 276/5/3
f 279/5/3 277/5/3 278/5/3
f 280/5/3 277/5/3 279/5/3
f 281/5/3 277/5/3 280/5/3
f 282/5/3 277/5/3 281/5/3
f 283/5/3 277/5/3 282/5/3
f 284/5/3 277/5/3 283/5/3
f 286/5/3 278/5/3 275/5/3
f 286/1/3 279/1/3 278/1/3
f 287/5/3 280/5/3 279/5/3
f 287/1/3 279/1/3 286/1/3
f 288/5/3 282/5/3 281/5/3
f 288/1/3 283/1/3 282/1/3
f 289/5/3 285/5/3 284/5/3
f 289/1/3 283/1/3 288/1/3
f 289/5/3 284/5/3 283/5/3
f 290/5/3 285/5/3 289/5/3
f 292/5/3 287/5/3 286/5/3
f 292/5/3 286/5/3 275/5/3
f 293/5/3 287/5/3 292/5/3
f 294/5/3 280/5/3 287/5/3
f 294/5/3 287/5/3 293/5/3
f 295/5/3 288/5/3 281/5/3
f 295/5/3 291/5/3 290/5/3
f 295/5/3 290/5/3 289/5/3
f 295/5/3 289/5/3 288/5/3
f 296/5/3 291/5/3 295/5/3
f 297/5/3 291/5/3 296/5/3
f 298/5/3 291/5/3 297/5/3
f 301/3/3 294/3/3 293/3/3
f 302/5/3 280/5/3 294/5/3
f 302/3/3 294/3/3 301/3/3
f 303/1/3 281/1/3 280/1/3
f 303/5/3 280/5/3 302/5/3
f 304/5/3 295/5/3 281/5/3
f 304/1/3 281/1/3 303/1/3
f 305/1/3 296/1/3 295/1/3
f 305/5/3 295/5/3 304/5/3
f 306/5/3 297/5/3 296/5/3
f 306/1/3 296/1/3 305/1/3
f 307/1/3 298/1/3 297/1/3
f 307/5/3 297/5/3 306/5/3
f 308/5/3 299/5/3 298/5/3
f 308/1/3 298/1/3 307/1/3
f 309/5/3 299/5/3 308/5/3
f 311/5/3 301/5/3 300/5/3
f 311/5/3 310/5/3 309/5/3
f 311/5/3 309/5/3 308/5/3
f 311/5/3 308/5/3 307/5/3
f 311/5/3 306/5/3 305/5/3
f 311/5/3 305/5/3 304/5/3
f 311/5/3 304/5/3 303/5/3
f 311/5/3 303/5/3 302/5/3
f 311/5/3 307/5/3 306/5/3
f 311/5/3 302/5/3 301/5/3
f 312/5/3 310/5/3 311/5/3
f 313/5/3 310/5/3 312/5/3
f 314/5/3 310/5/3 313/5/3
f 315/5/3 310/5/3 314/5/3
f 316/5/3 310/5/3 315/5/3
f 317/5/3 310/5/3 316/5/3
f 318/5/3 310/5/3 317/5/3
f 319/5/3 310/5/3 318/5/3
f 320/5/3 310/5/3 319/5/3
f 321/5/3 310/5/3 320/5/3
f 323/3/3 313/3/3 312/3/3
f 324/5/3 314/5/3 313/5/3
f 324/3/3 313/3/3 323/3/3
f 325/5/3 316/5/3 315/5/3
f 325/1/3 317/1/3 316/1/3
f 326/5/3 318/5/3 317/5/3
f 326/1/3 317/1/3 325/1/3
f 327/1/3 319/1/3 318/1/3
f 327/5/3 318/5/3 326/5/3
f 328/5/3 320/5/3 319/5/3
f 328/1/3 319/1/3 327/1/3
f 329/5/3 320/5/3 328/5/3
f 330/5/3 323/5/3 322/5/3
f 330/5/3 324/5/3 323/5/3
f 331/5/3 314/5/3 324/5/3
f 331/5/3 324/5/3 330/5/3
f 332/5/3 327/5/3 326/5/3
f 332/5/3 328/5/3 327/5/3
f 332/5/3 325/5/3 315/5/3
f 332/5/3 326/5/3 325/5/3
f 333/5/3 328/5/3 332/5/3
f 334/5/3 328/5/3 333/5/3
f 335/5/3 328/5/3 334/5/3
f 336/5/3 330/5/3 322/5/3
f 336/1/3 331/1/3 330/1/3
f 337/5/3 314/5/3 331/5/3
f 337/1/3 331/1/3 336/1/3
f 338/1/3 315/1/3 314/1/3
f 338/5/3 314/5/3 337/5/3
f 339/5/3 332/5/3 315/5/3
f 339/1/3 315/1/3 338/1/3
f 340/1/3 333/1/3 332/1/3
f 340/5/3 332/5/3 339/5/3
f 341/5/3 334/5/3 333/5/3
f 341/1/3 333/1/3 340/1/3
f 342/5/3 334/5/3 341/5/3
f 343/5/3 334/5/3 342/5/3
f 344/5/3 336/5/3 322/5/3
f 344/5/3 337/5/3 336/5/3
f 344/5/3 342/5/3 341/5/3
f 344/5/3 341/5/3 340/5/3
f 344/5/3 339/5/3 338/5/3
f 344/5/3 338/5/3 337/5/3
f 344/5/3 340/5/3 339/5/3
f 345/5/3 342/5/3 344/5/3
f 346/5/3 342/5/3 345/5/3
f 347/5/4 348/5/4 350/5/4
f 348/5/4 349/5/4 350/5/4
f 350/5/4 349/5/4 351/5/4
f 351/5/4 349/5/4 352/5/4
f 352/5/4 349/5/4 353/5/4
f 353/5/4 349/5/4 354/5/4
f 354/5/4 349/5/4 355/5/4
f 355/5/4 349/5/4 356/5/4
f 355/5/4 356/5/4 358/5/4
f 356/5/4 357/5/4 358/5/4
f 353/5/4 354/5/4 360/5/4
f 354/1/4 355/1/4 360/1/4
f 358/5/4 359/5/4 361/5/4
f 360/1/4 355/1/4 361/1/4
f 355/5/4 358/5/4 361/5/4
f 361/5/4 359/5/4 362/5/4
f 362/5/4 359/5/4 363/5/4
f 347/5/4 350/5/4 365/5/4
f 350/1/4 351/1/4 365/1/4
f 351/5/4 352/5/4 366/5/4
f 365/1/4 351/1/4 366/1/4
f 352/1/4 353/1/4 367/1/4
f 366/5/4 352/5/4 367/5/4
f 353/5/4 360/5/4 368/5/4
f 367/1/4 353/1/4 368/1/4
f 360/5/4 361/5/4 368/5/4
f 361/5/4 362/5/4 368/5/4
f 362/1/4 363/1/4 369/1/4
f 368/5/4 362/5/4 369/5/4
f 363/5/4 364/5/4 370/5/4
f 369/1/4 363/1/4 370/1/4
f 370/5/4 364/5/4 371/5/4
f 368/5/4 369/5/4 373/5/4
f 371/5/4 372/5/4 373/5/4
f 370/5/4 371/5/4 373/5/4
f 369/5/4 370/5/4 373/5/4
f 366/5/4 367/5/4 373/5/4
f 365/5/4 366/5/4 373/5/4
f 347/5/4 365/5/4 373/5/4
f 367/5/4 368/5/4 373/5/4
f 373/5/4 372/5/4 374/5/4
f 374/5/4 372/5/4 375/5/4
f 375/5/4 372/5/4 376/5/4
f 376/5/4 372/5/4 377/5/4
f 377/5/4 372/5/4 378/5/4
f 378/5/4 372/5/4 379/5/4
f 379/5/4 372/5/4 380/5/4
f 376/5/4 377/5/4 381/5/4
f 381/5/4 377/5/4 382/5/4
f 377/1/4 378/1/4 383/1/4
f 382/5/4 377/5/4 383/5/4
f 378/5/4 379/5/4 384/5/4
f 383/1/4 378/1/4 384/1/4
f 384/5/4 379/5/4 385/5/4
f 382/5/4 383/5/4 386/5/4
f 383/5/4 384/5/4 386/5/4
f 386/5/4 384/5/4 387/5/4
f 347/5/4 373/5/4 388/5/4
f 373/1/4 374/1/4 388/1/4
f 374/5/4 375/5/4 389/5/4
f 388/1/4 374/1/4 389/1/4
f 375/1/4 376/1/4 390/1/4
f 389/5/4 375/5/4 390/5/4
f 376/5/4 381/5/4 391/5/4
f 390/1/4 376/1/4 391/1/4
f 381/1/4 382/1/4 392/1/4
f 391/5/4 381/5/4 392/5/4
f 382/5/4 386/5/4 393/5/4
f 392/1/4 382/1/4 393/1/4
f 393/5/4 386/5/4 394/5/4
f 394/5/4 386/5/4 395/5/4
f 391/5/4 392/5/4 396/5/4
f 347/5/4 388/5/4 396/5/4
f 393/5/4 394/5/4 396/5/4
f 392/5/4 393/5/4 396/5/4
f 389/5/4 390/5/4 396/5/4
f 388/5/4 389/5/4 396/5/4
f 390/5/4 391/5/4 396/5/4
f 396/5/4 394/5/4 397/5/4
f 397/5/4 394/5/4 398/5/4
f 399/2/4 400/2/4 401/2/4
f 401/2/4 400/2/4 402/2/4
f 402/2/4 403/2/4 404/2/4
f 404/2/4 403/2/4 405/2/4
f 405/2/4 406/2/4 407/2/4
f 407/2/4 406/2/4 408/2/4
f 408/2/4 409/2/4 410/2/4
f 410/2/4 409/2/4 411/2/4
f 411/2/4 412/2/4 413/2/4
f 413/2/4 412/2/4 414/2/4
f 414/2/4 415/2/4 417/2/4
f 417/2/4 415/2/4 418/2/4
f 416/2/4 417/2/4 420/2/4
f 420/2/4 417/2/4 421/2/4
f 419/2/4 420/2/4 423/2/4
f 423/2/4 420/2/4 424/2/4
f 422/2/4 423/2/4 426/2/4
f 426/2/4 423/2/4 427/2/4
f 425/2/4 426/2/4 429/2/4
f 429/2/4 426/2/4 430/2/4
f 428/2/4 429/2/4 431/2/4
f 431/2/4 429/2/4 432/2/4
f 438/4/5 434/4/5 433/4/5
f 439/4/5 434/4/5 438/4/5
f 440/4/5 436/4/5 435/4/5
f 441/4/5 436/4/5 440/4/5
f 443/5/5 439/5/5 438/5/5
f 443/5/5 442/5/5 441/5/5
f 443/5/5 441/5/5 440/5/5
f 443/5/5 440/5/5 439/5/5
f 443/5/5 438/5/5 437/5/5
f 444/5/5 442/5/5 443/5/5
f 449/2/5 446/2/5 445/2/5
f 450/2/5 448/2/5 447/2/5
f 451/2/5 449/2/5 445/2/5
f 452/2/5 448/2/5 450/2/5
f 453/2/5 451/2/5 445/2/5
f 454/2/5 448/2/5 452/2/5
f 455/2/5 453/2/5 445/2/5
f 456/2/5 448/2/5 454/2/5
f 457/2/5 455/2/5 445/2/5
f 458/2/5 448/2/5 456/2/5
f 459/2/5 457/2/5 445/2/5
f 460/2/5 448/2/5 458/2/5
f 461/2/5 459/2/5 445/2/5
f 462/2/5 448/2/5 460/2/5
f 463/2/5 461/2/5 445/2/5
f 464/2/5 448/2/5 462/2/5
f 465/2/5 463/2/5 445/2/5
f 466/2/5 463/2/5 465/2/5
f 467/2/5 448/2/5 464/2/5
f 468/2/5 448/2/5 467/2/5
f 473/2/5 470/2/5 469/2/5
f 474/2/5 470/2/5 473/2/5
f 475/2/5 472/2/5 471/2/5
f 476/2/5 472/2/5 475/2/5
f 481/2/5 478/2/5 477/2/5
f 482/2/5 478/2/5 481/2/5
f 483/2/5 480/2/5 479/2/5
f 484/2/5 480/2/5 483/2/5
f 489/2/5 486/2/5 485/2/5
f 490/2/5 486/2/5 489/2/5
f 491/2/5 488/2/5 487/2/5
f 492/2/5 488/2/5 491/2/5
f 497/2/5 494/2/5 493/2/5
f 498/2/5 494/2/5 497/2/5
f 499/2/5 496/2/5 495/2/5
f 500/2/5 496/2/5 499/2/5
f 505/2/5 502/2/5 501/2/5
f 506/2/5 502/2/5 505/2/5
f 507/2/5 504/2/5 503/2/5
f 508/2/5 504/2/5 507/2/5
f 513/2/5 510/2/5 509/2/5
f 514/2/5 510/2/5 513/2/5
f 515/2/5 512/2/5 511/2/5
f 516/2/5 512/2/5 515/2/5
f 521/2/5 518/2/5 517/2/5
f 522/2/5 518/2/5 521/2/5
f 523/2/5 520/2/5 519/2/5
f 524/2/5 520/2/5 523/2/5
f 529/2/5 526/2/5 525/2/5
f 530/2/5 526/2/5 529/2/5
f 531/2/5 528/2/5 527/2/5
f 532/2/5 528/2/5 531/2/5
f 535/2/5 534/2/5 533/2/5
f 536/2/5 534/2/5 535/2/5
f 539/2/5 538/2/5 537/2/5
f 540/2/5 538/2/5 539/2/5
f 541/4/6 542/4/6 545/4/6
f 545/4/6 542/4/6 546/4/6
f 543/4/6 544/4/6 547/4/6
f 547/4/6 544/4/6 548/4/6
f 549/2/6 550/2/6 553/2/6
f 553/2/6 550/2/6 554/2/6
f 551/2/6 552/2/6 555/2/6
f 555/2/6 552/2/6 556/2/6
f 557/2/6 558/2/6 561/2/6
f 561/2/6 558/2/6 562/2/6
f 559/2/6 560/2/6 563/2/6
f 563/2/6 560/2/6 564/2/6
f 565/2/6 566/2/6 569/2/6
f 569/2/6 566/2/6 570/2/6
f 567/2/6 568/2/6 571/2/6
f 571/2/6 568/2/6 572/2/6
f 573/2/6 574/2/6 577/2/6
f 577/2/6 574/2/6 578/2/6
f 575/2/6 576/2/6 579/2/6
f 579/2/6 576/2/6 580/2/6
f 581/2/6 582/2/6 585/2/6
f 585/2/6 582/2/6 586/2/6
f 583/2/6 584/2/6 587/2/6
f 587/2/6 584/2/6 588/2/6
f 589/2/6 590/2/6 591/2/6
f 591/2/6 590/2/6 592/2/6
