# MagicaVoxel @ Ephtracy

# group
g Island-A

# material
mtllib Island-A.mtl
usemtl palette

# normals
vn -1 0 0
vn 1 0 0
vn 0 0 1
vn 0 0 -1
vn 0 -1 0
vn 0 1 0

# texcoords
vt 0.0371094 0.5
vt 0.818359 0.5

# verts
v -60 0 50
v -60 0 -40
v -60 1 50
v -60 1 -40
v -50 0 60
v -50 0 50
v -50 0 -40
v -50 0 -60
v -50 1 60
v -50 1 50
v -50 1 40
v -50 1 -30
v -50 1 -40
v -50 1 -60
v -50 2 40
v -50 2 -30
v -40 1 50
v -40 1 40
v -40 1 -30
v -40 1 -50
v -40 2 50
v -40 2 40
v -40 2 20
v -40 2 -20
v -40 2 -30
v -40 2 -50
v -40 3 20
v -40 3 -20
v -30 2 -20
v -30 2 -40
v -30 3 -20
v -30 3 -40
v -10 3 -10
v -10 3 -20
v -10 4 -10
v -10 4 -20
v 0 3 -20
v 0 3 -30
v 0 4 -20
v 0 4 -30
v 10 0 40
v 10 0 30
v 10 1 40
v 10 1 30
v 10 1 20
v 10 1 10
v 10 2 20
v 10 2 10
v 20 0 60
v 20 0 40
v 20 1 60
v 20 1 40
v 20 1 30
v 20 1 20
v 20 2 30
v 20 2 20
v 20 2 10
v 20 2 -0
v 20 3 10
v 20 3 -0
v 30 1 50
v 30 1 30
v 30 2 50
v 30 2 30
v 30 2 20
v 30 2 10
v 30 3 20
v 30 3 10
v -30 1 50
v -30 1 30
v -30 2 50
v -30 2 30
v -30 2 20
v -30 2 10
v -30 3 20
v -30 3 10
v -20 0 60
v -20 0 40
v -20 1 60
v -20 1 40
v -20 1 30
v -20 1 20
v -20 2 30
v -20 2 20
v -20 2 10
v -20 2 -0
v -20 3 10
v -20 3 -0
v -10 0 40
v -10 0 30
v -10 1 40
v -10 1 30
v -10 1 20
v -10 1 10
v -10 2 20
v -10 2 10
v 20 3 -20
v 20 3 -30
v 20 4 -20
v 20 4 -30
v 30 2 -30
v 30 2 -40
v 30 3 -10
v 30 3 -20
v 30 3 -30
v 30 3 -40
v 30 4 -10
v 30 4 -20
v 40 1 -40
v 40 1 -50
v 40 2 20
v 40 2 -30
v 40 2 -40
v 40 2 -50
v 40 3 20
v 40 3 -30
v 50 0 -50
v 50 0 -60
v 50 1 50
v 50 1 -40
v 50 1 -50
v 50 1 -60
v 50 2 50
v 50 2 -40
v 60 0 60
v 60 0 -50
v 60 1 60
v 60 1 -50
v -50 0 60
v -50 1 60
v -20 0 60
v -20 1 60
v 20 0 60
v 20 1 60
v 60 0 60
v 60 1 60
v -60 0 50
v -60 1 50
v -50 0 50
v -50 1 50
v -40 1 50
v -40 2 50
v -30 1 50
v -30 2 50
v 30 1 50
v 30 2 50
v 50 1 50
v 50 2 50
v -50 1 40
v -50 2 40
v -40 1 40
v -40 2 40
v -20 0 40
v -20 1 40
v -10 0 40
v -10 1 40
v 10 0 40
v 10 1 40
v 20 0 40
v 20 1 40
v -30 1 30
v -30 2 30
v -20 1 30
v -20 2 30
v -10 0 30
v -10 1 30
v 10 0 30
v 10 1 30
v 20 1 30
v 20 2 30
v 30 1 30
v 30 2 30
v -40 2 20
v -40 3 20
v -30 2 20
v -30 3 20
v -20 1 20
v -20 2 20
v -10 1 20
v -10 2 20
v 10 1 20
v 10 2 20
v 20 1 20
v 20 2 20
v 30 2 20
v 30 3 20
v 40 2 20
v 40 3 20
v -30 2 10
v -30 3 10
v -20 2 10
v -20 3 10
v -10 1 10
v -10 2 10
v 10 1 10
v 10 2 10
v 20 2 10
v 20 3 10
v 30 2 10
v 30 3 10
v -20 2 -0
v -20 3 -0
v 20 2 -0
v 20 3 -0
v -10 3 -10
v -10 4 -10
v 30 3 -10
v 30 4 -10
v -40 2 -20
v -40 3 -20
v -30 2 -20
v -30 3 -20
v -10 3 -20
v -10 4 -20
v 0 3 -20
v 0 4 -20
v 20 3 -20
v 20 4 -20
v 30 3 -20
v 30 4 -20
v -50 1 -30
v -50 2 -30
v -40 1 -30
v -40 2 -30
v 0 3 -30
v 0 4 -30
v 20 3 -30
v 20 4 -30
v 30 2 -30
v 30 3 -30
v 40 2 -30
v 40 3 -30
v -60 0 -40
v -60 1 -40
v -50 0 -40
v -50 1 -40
v -30 2 -40
v -30 3 -40
v 30 2 -40
v 30 3 -40
v 40 1 -40
v 40 2 -40
v 50 1 -40
v 50 2 -40
v -40 1 -50
v -40 2 -50
v 40 1 -50
v 40 2 -50
v 50 0 -50
v 50 1 -50
v 60 0 -50
v 60 1 -50
v -50 0 -60
v -50 1 -60
v 50 0 -60
v 50 1 -60
v -50 0 60
v -20 0 60
v 20 0 60
v 60 0 60
v -60 0 50
v -50 0 50
v -20 0 40
v -10 0 40
v 10 0 40
v 20 0 40
v -10 0 30
v 10 0 30
v -60 0 -40
v -50 0 -40
v 50 0 -50
v 60 0 -50
v -50 0 -60
v 50 0 -60
v -50 1 60
v -20 1 60
v 20 1 60
v 60 1 60
v -60 1 50
v -50 1 50
v -40 1 50
v -30 1 50
v 30 1 50
v 50 1 50
v -50 1 40
v -40 1 40
v -20 1 40
v -10 1 40
v 10 1 40
v 20 1 40
v -30 1 30
v -20 1 30
v -10 1 30
v 10 1 30
v 20 1 30
v 30 1 30
v -20 1 20
v -10 1 20
v 10 1 20
v 20 1 20
v -10 1 10
v 10 1 10
v -50 1 -30
v -40 1 -30
v -60 1 -40
v -50 1 -40
v 40 1 -40
v 50 1 -40
v -40 1 -50
v 40 1 -50
v 50 1 -50
v 60 1 -50
v -50 1 -60
v 50 1 -60
v -40 2 50
v -30 2 50
v 30 2 50
v 50 2 50
v -50 2 40
v -40 2 40
v -30 2 30
v -20 2 30
v 20 2 30
v 30 2 30
v -40 2 20
v -30 2 20
v -20 2 20
v -10 2 20
v 10 2 20
v 20 2 20
v 30 2 20
v 40 2 20
v -30 2 10
v -20 2 10
v -10 2 10
v 10 2 10
v 20 2 10
v 30 2 10
v -20 2 -0
v 20 2 -0
v -40 2 -20
v -30 2 -20
v -50 2 -30
v -40 2 -30
v 30 2 -30
v 40 2 -30
v -30 2 -40
v 30 2 -40
v 40 2 -40
v 50 2 -40
v -40 2 -50
v 40 2 -50
v -40 3 20
v -30 3 20
v 30 3 20
v 40 3 20
v -30 3 10
v -20 3 10
v 20 3 10
v 30 3 10
v -20 3 -0
v 20 3 -0
v -10 3 -10
v 30 3 -10
v -40 3 -20
v -30 3 -20
v -10 3 -20
v 0 3 -20
v 20 3 -20
v 30 3 -20
v 0 3 -30
v 20 3 -30
v 30 3 -30
v 40 3 -30
v -30 3 -40
v 30 3 -40
v -10 4 -10
v 30 4 -10
v -10 4 -20
v 0 4 -20
v 20 4 -20
v 30 4 -20
v 0 4 -30
v 20 4 -30

# faces
f 3/1/1 2/1/1 1/1/1
f 4/1/1 2/1/1 3/1/1
f 9/1/1 6/1/1 5/1/1
f 10/1/1 6/1/1 9/1/1
f 13/1/1 8/1/1 7/1/1
f 14/1/1 8/1/1 13/1/1
f 15/2/1 12/2/1 11/2/1
f 16/2/1 12/2/1 15/2/1
f 21/2/1 18/2/1 17/2/1
f 22/2/1 18/2/1 21/2/1
f 25/2/1 20/2/1 19/2/1
f 26/2/1 20/2/1 25/2/1
f 27/2/1 24/2/1 23/2/1
f 28/2/1 24/2/1 27/2/1
f 31/2/1 30/2/1 29/2/1
f 32/2/1 30/2/1 31/2/1
f 35/2/1 34/2/1 33/2/1
f 36/2/1 34/2/1 35/2/1
f 39/2/1 38/2/1 37/2/1
f 40/2/1 38/2/1 39/2/1
f 43/1/1 42/1/1 41/1/1
f 44/1/1 42/1/1 43/1/1
f 47/2/1 46/2/1 45/2/1
f 48/2/1 46/2/1 47/2/1
f 51/1/1 50/1/1 49/1/1
f 52/1/1 50/1/1 51/1/1
f 55/2/1 54/2/1 53/2/1
f 56/2/1 54/2/1 55/2/1
f 59/2/1 58/2/1 57/2/1
f 60/2/1 58/2/1 59/2/1
f 63/2/1 62/2/1 61/2/1
f 64/2/1 62/2/1 63/2/1
f 67/2/1 66/2/1 65/2/1
f 68/2/1 66/2/1 67/2/1
f 69/2/2 70/2/2 71/2/2
f 71/2/2 70/2/2 72/2/2
f 73/2/2 74/2/2 75/2/2
f 75/2/2 74/2/2 76/2/2
f 77/1/2 78/1/2 79/1/2
f 79/1/2 78/1/2 80/1/2
f 81/2/2 82/2/2 83/2/2
f 83/2/2 82/2/2 84/2/2
f 85/2/2 86/2/2 87/2/2
f 87/2/2 86/2/2 88/2/2
f 89/1/2 90/1/2 91/1/2
f 91/1/2 90/1/2 92/1/2
f 93/2/2 94/2/2 95/2/2
f 95/2/2 94/2/2 96/2/2
f 97/2/2 98/2/2 99/2/2
f 99/2/2 98/2/2 100/2/2
f 101/2/2 102/2/2 105/2/2
f 105/2/2 102/2/2 106/2/2
f 103/2/2 104/2/2 107/2/2
f 107/2/2 104/2/2 108/2/2
f 109/2/2 110/2/2 113/2/2
f 113/2/2 110/2/2 114/2/2
f 111/2/2 112/2/2 115/2/2
f 115/2/2 112/2/2 116/2/2
f 117/1/2 118/1/2 121/1/2
f 121/1/2 118/1/2 122/1/2
f 119/2/2 120/2/2 123/2/2
f 123/2/2 120/2/2 124/2/2
f 125/1/2 126/1/2 127/1/2
f 127/1/2 126/1/2 128/1/2
f 131/1/3 130/1/3 129/1/3
f 132/1/3 130/1/3 131/1/3
f 135/1/3 134/1/3 133/1/3
f 136/1/3 134/1/3 135/1/3
f 139/1/3 138/1/3 137/1/3
f 140/1/3 138/1/3 139/1/3
f 143/2/3 142/2/3 141/2/3
f 144/2/3 142/2/3 143/2/3
f 147/2/3 146/2/3 145/2/3
f 148/2/3 146/2/3 147/2/3
f 151/2/3 150/2/3 149/2/3
f 152/2/3 150/2/3 151/2/3
f 155/1/3 154/1/3 153/1/3
f 156/1/3 154/1/3 155/1/3
f 159/1/3 158/1/3 157/1/3
f 160/1/3 158/1/3 159/1/3
f 163/2/3 162/2/3 161/2/3
f 164/2/3 162/2/3 163/2/3
f 167/1/3 166/1/3 165/1/3
f 168/1/3 166/1/3 167/1/3
f 171/2/3 170/2/3 169/2/3
f 172/2/3 170/2/3 171/2/3
f 175/2/3 174/2/3 173/2/3
f 176/2/3 174/2/3 175/2/3
f 179/2/3 178/2/3 177/2/3
f 180/2/3 178/2/3 179/2/3
f 183/2/3 182/2/3 181/2/3
f 184/2/3 182/2/3 183/2/3
f 187/2/3 186/2/3 185/2/3
f 188/2/3 186/2/3 187/2/3
f 191/2/3 190/2/3 189/2/3
f 192/2/3 190/2/3 191/2/3
f 195/2/3 194/2/3 193/2/3
f 196/2/3 194/2/3 195/2/3
f 199/2/3 198/2/3 197/2/3
f 200/2/3 198/2/3 199/2/3
f 203/2/3 202/2/3 201/2/3
f 204/2/3 202/2/3 203/2/3
f 207/2/3 206/2/3 205/2/3
f 208/2/3 206/2/3 207/2/3
f 209/2/4 210/2/4 211/2/4
f 211/2/4 210/2/4 212/2/4
f 213/2/4 214/2/4 215/2/4
f 215/2/4 214/2/4 216/2/4
f 217/2/4 218/2/4 219/2/4
f 219/2/4 218/2/4 220/2/4
f 221/2/4 222/2/4 223/2/4
f 223/2/4 222/2/4 224/2/4
f 225/2/4 226/2/4 227/2/4
f 227/2/4 226/2/4 228/2/4
f 229/2/4 230/2/4 231/2/4
f 231/2/4 230/2/4 232/2/4
f 233/1/4 234/1/4 235/1/4
f 235/1/4 234/1/4 236/1/4
f 237/2/4 238/2/4 239/2/4
f 239/2/4 238/2/4 240/2/4
f 241/2/4 242/2/4 243/2/4
f 243/2/4 242/2/4 244/2/4
f 245/2/4 246/2/4 247/2/4
f 247/2/4 246/2/4 248/2/4
f 249/1/4 250/1/4 251/1/4
f 251/1/4 250/1/4 252/1/4
f 253/1/4 254/1/4 255/1/4
f 255/1/4 254/1/4 256/1/4
f 262/1/5 258/1/5 257/1/5
f 263/1/5 258/1/5 262/1/5
f 263/1/5 262/1/5 261/1/5
f 266/1/5 260/1/5 259/1/5
f 267/1/5 264/1/5 263/1/5
f 268/1/5 266/1/5 265/1/5
f 269/1/5 267/1/5 263/1/5
f 269/1/5 268/1/5 267/1/5
f 269/1/5 263/1/5 261/1/5
f 270/1/5 268/1/5 269/1/5
f 271/1/5 266/1/5 268/1/5
f 271/1/5 268/1/5 270/1/5
f 271/1/5 260/1/5 266/1/5
f 272/1/5 260/1/5 271/1/5
f 273/1/5 271/1/5 270/1/5
f 274/1/5 271/1/5 273/1/5
f 275/1/6 276/1/6 280/1/6
f 280/1/6 276/1/6 281/1/6
f 281/1/6 276/1/6 282/1/6
f 277/1/6 278/1/6 283/1/6
f 283/1/6 278/1/6 284/1/6
f 279/1/6 280/1/6 285/1/6
f 280/1/6 281/1/6 285/1/6
f 285/1/6 281/1/6 286/1/6
f 282/1/6 276/1/6 287/1/6
f 277/1/6 283/1/6 290/1/6
f 287/1/6 288/1/6 291/1/6
f 282/1/6 287/1/6 291/1/6
f 291/1/6 288/1/6 292/1/6
f 292/1/6 288/1/6 293/1/6
f 289/1/6 290/1/6 294/1/6
f 290/1/6 283/1/6 295/1/6
f 294/1/6 290/1/6 295/1/6
f 295/1/6 283/1/6 296/1/6
f 292/1/6 293/1/6 297/1/6
f 293/1/6 294/1/6 297/1/6
f 294/1/6 295/1/6 297/1/6
f 297/1/6 295/1/6 298/1/6
f 298/1/6 295/1/6 299/1/6
f 299/1/6 295/1/6 300/1/6
f 298/1/6 299/1/6 301/1/6
f 301/1/6 299/1/6 302/1/6
f 279/1/6 285/1/6 303/1/6
f 279/1/6 303/1/6 305/1/6
f 303/1/6 304/1/6 305/1/6
f 305/1/6 304/1/6 306/1/6
f 284/1/6 278/1/6 308/1/6
f 306/1/6 304/1/6 309/1/6
f 307/1/6 308/1/6 310/1/6
f 308/1/6 278/1/6 311/1/6
f 310/1/6 308/1/6 311/1/6
f 311/1/6 278/1/6 312/1/6
f 306/1/6 309/1/6 313/1/6
f 309/1/6 310/1/6 313/1/6
f 310/1/6 311/1/6 313/1/6
f 313/1/6 311/1/6 314/1/6
f 315/2/6 316/2/6 320/2/6
f 320/2/6 316/2/6 321/2/6
f 319/2/6 320/2/6 321/2/6
f 317/2/6 318/2/6 324/2/6
f 321/2/6 322/2/6 325/2/6
f 319/2/6 321/2/6 325/2/6
f 325/2/6 322/2/6 326/2/6
f 326/2/6 322/2/6 327/2/6
f 323/2/6 324/2/6 330/2/6
f 324/2/6 318/2/6 331/2/6
f 330/2/6 324/2/6 331/2/6
f 331/2/6 318/2/6 332/2/6
f 327/2/6 328/2/6 333/2/6
f 326/2/6 327/2/6 333/2/6
f 333/2/6 328/2/6 334/2/6
f 334/2/6 328/2/6 335/2/6
f 329/2/6 330/2/6 336/2/6
f 330/2/6 331/2/6 336/2/6
f 336/2/6 331/2/6 337/2/6
f 337/2/6 331/2/6 338/2/6
f 334/2/6 335/2/6 339/2/6
f 336/2/6 337/2/6 339/2/6
f 335/2/6 336/2/6 339/2/6
f 339/2/6 337/2/6 340/2/6
f 319/2/6 325/2/6 341/2/6
f 319/2/6 341/2/6 343/2/6
f 341/2/6 342/2/6 343/2/6
f 343/2/6 342/2/6 344/2/6
f 332/2/6 318/2/6 346/2/6
f 344/2/6 342/2/6 347/2/6
f 345/2/6 346/2/6 348/2/6
f 346/2/6 318/2/6 349/2/6
f 348/2/6 346/2/6 349/2/6
f 349/2/6 318/2/6 350/2/6
f 344/2/6 347/2/6 351/2/6
f 347/2/6 348/2/6 351/2/6
f 348/2/6 349/2/6 351/2/6
f 351/2/6 349/2/6 352/2/6
f 353/2/6 354/2/6 357/2/6
f 355/2/6 356/2/6 360/2/6
f 357/2/6 358/2/6 361/2/6
f 359/2/6 360/2/6 362/2/6
f 361/2/6 362/2/6 363/2/6
f 360/2/6 356/2/6 364/2/6
f 363/2/6 362/2/6 364/2/6
f 362/2/6 360/2/6 364/2/6
f 357/2/6 361/2/6 365/2/6
f 353/2/6 357/2/6 365/2/6
f 361/2/6 363/2/6 365/2/6
f 365/2/6 363/2/6 366/2/6
f 366/2/6 363/2/6 367/2/6
f 364/2/6 356/2/6 370/2/6
f 367/2/6 368/2/6 371/2/6
f 366/2/6 367/2/6 371/2/6
f 369/2/6 370/2/6 372/2/6
f 370/2/6 356/2/6 373/2/6
f 372/2/6 370/2/6 373/2/6
f 373/2/6 356/2/6 374/2/6
f 366/2/6 371/2/6 375/2/6
f 371/2/6 372/2/6 375/2/6
f 372/2/6 373/2/6 375/2/6
f 375/2/6 373/2/6 376/2/6
f 377/2/6 378/2/6 379/2/6
f 379/2/6 378/2/6 380/2/6
f 380/2/6 378/2/6 381/2/6
f 381/2/6 378/2/6 382/2/6
f 380/2/6 381/2/6 383/2/6
f 383/2/6 381/2/6 384/2/6
